<svg xmlns="http://www.w3.org/2000/svg" xmlns:xlink="http://www.w3.org/1999/xlink" viewBox="0 0 1537.01 752.98"><defs><style>.cls-1{fill:none;}.cls-2{clip-path:url(#clip-path);}.cls-3,.cls-4{fill:#447a90;}.cls-3{fill-rule:evenodd;}.cls-4{fill-opacity:0.8;}.cls-5{fill:#ff921e;}.cls-6{opacity:0.1;}.cls-7{font-size:58.82px;fill:#fff;font-family:Inter-Bold, Inter;font-weight:700;}.cls-8{letter-spacing:-0.01em;}</style><clipPath id="clip-path" transform="translate(367.92 54.63)"><path class="cls-1" d="M452.77,56.17c.27,1.79,3.34,7.92,3.34,7.92l.2,2.74-.12.76-.44,3.5-.48,3.26L455,80.92l-1.31,1.19L447,78l-2.31-3.34-1.31-3.74-2.27-2.66-3.62-5.1-1.27,2.23,1.63,3.1.56,3.46,7.47,9.67,2.15.32,0,3.06,3.18,2.91.6,3.42,5.33,8.51,7.56,12.73,4.85,3.94c-2.7-.12,0,7.6,0,7.6l1.59,2.82,3.26,1.83,1.28,1,2,1.6,3.82,3,3.34,7.16,1.31,1.23a7.17,7.17,0,0,1,.32,2.87c-.16,1.55,0,6.6,0,6.6-.08,1.75,4.1,12.41,4.1,12.41l4,1.91,4.1,3.5,1.91.8,5.21,7.83L508,188.4l4.13,6.32,3.15-.23,4.85,3.85,3.46,3.54,3-.39,4.22,5,.4.68,1,1.39-1.07-.76-.68.28-.36,1,1.08-.15,1.35,0,1.59-.56,1.75,1.11,2.27,2.67.16,1.79h2.27l3.42,3.5,1.91.87.43.64,3.94,4.06-1,1.31-.92,1.07-2.22,1.32-4.42,2.78,0,1.47,4.26-.55.59.32.92.19,1.11.36.52.6,2.46,2.42,3,4,5.25,1.59,8.39-1.67,4.26-2.06,4.57,1.19,9.75-5.29,3.22-.28c4.77-2,6.49-1.83,6.49-1.83l3.14.87L609.93,226l2.75-3.62h4l2.75.92-1.67,2.9.28.92.35,1.91.32,2.18.36,3.94h2v1l-2.87.71-.39,2v7.76l-3.15,6.28-2.06,6.53h-.44l-.8.31-.79.32-.88.52-.24.36v.44l.24.51v3.42l-1,.76-.48.91-.36,1-.59,1.31-.72,1.59-.68.92-.39.63-.28.68-.24.56-.24.59-.4,4.9a7.53,7.53,0,0,1-.59,2.07l-.84,1.19-1,1.39-.64,1-.91,1.47-1,1.59-.87,1.43-.88,1.31-.68,1.16-.39.83-.28.84-.32,1.27-.56,1.19-.39.8-.6.6-1.71,2-2,2.38L589,303.44l-1,1.39-2.9,3.82-3.3,3.54-1.63,2.07-.28.72-3,2.86-.39.56-.44.44-2.43,1.27-4.89,2.59-7.56,6.36-4.77,4.69-1.23,1.48-5.13,5.88-2.67,2.79-.68,1-3.46,4.5-1.67.31v1.95l-1.07,2.39L538,356.35l-1.63,2.82-2.19.6h-1.75v2l-.47,1.07-2,2.79L526,366.89l-.72,3.18-.75,2.9h-.4L522,377.59l-.36,2.31-1.23,1.43c.2,1.19-2,3.66-2,3.66l-2.27.52-.12,2.26-1.11,2.71-.6,2.22-.27,1L512,397.44l1.11,3.9c.24,1.91,1,1.67,1,1.67l1.47.35,3,1.83.2,3.07-1.43,1.35L516,413.23l.2,1.91h1.59s.68,2.54.4,2.54-1.95,1.87-1.95,1.87l-.12,2,1.08,2.23a6.22,6.22,0,0,1,.48,3.26s.35,2,.91,2.27.68.48.68.48v.71l.39,5.21,1.4,1.59,1.43-.55.12.63,1.87.68a3.05,3.05,0,0,1,1.35,2l1.55,1.23v2.19l-.44,1.79-.75,1.43-.32.8-.12.75.16,5.06.48,1.95.4,1.35v1.27l-.36.56-.24.71V460l.12.64,0,.27,0,.52-.88,2.35,1,1.75.12,4.93-.28,4.3,0,.71.12.48,1.39,2.07-.2,2.66-1.71,1.55a14,14,0,0,1-1.07,5.37l-5.33,5.33a2.62,2.62,0,0,1-2.11,2.91l-2,2.11a4.93,4.93,0,0,0-2.63,1.55l-1.47.83-1,1.87-4.06.6L495,507.5l-2.43,1.6-1.31,1.15-1.15.56-.56,2.34-4.73,4.42-1.91.24-.92,1.35-1.91.52-.59.71-4.38,4.06-1.83,2.16-1.51.42c-1.95-.95-2.11,0-2.11,0l0,.72.08,1.07-.24,1.36-.87,1.51-.16,1.91,3.1,3.1.16,4.26-.52,1.91c1.08.51,1.28.91,1.28.91l.79,4.58-.39,2.1H474l-.08,3.62.56,1.59-.16,2.31a2.3,2.3,0,0,0-1.39,1.83s.19-.28-.48,2-.36,2.27-.36,2.27,1.59,1.07,1.31,2a8.26,8.26,0,0,1-1.51,2.3,5,5,0,0,1-2.15,2.43l-3,1.75-1.91,1-.76.44s-7.63,3.06-7.75,3-2.11-.35-2.39,0a32.67,32.67,0,0,1-3.86,2l-2,1.83.24.64.08,1.07v1.47l.28,1.6.68,1-.2,1.27-.76,2-.48,3.7-1.35,2.7-1,2.07v.4l-.4,1.35-.8,1-.2.55L444,602l.19.2-.67,1.31-.68,1-1.43,2.66-.72,1.28-1.35,1.31L437.81,611l-2.39,1.2-.63.71-3.54,3L429.89,619l-5.8,7.52-5.14,6c-1,.2-5.29,3.15-5.36,3.58s-4.14,4.1-4.14,4.1l-7,5.57L399.1,648,398,649l-4.18,2.75-5,1.51-4.57-.2a9.89,9.89,0,0,0-2.23,2.62l-2.55.12c-.71-1.27-1.35-1.07-1.35-1.07l-1.87.79-1.51,1.24s-1.47.71-2.07.48a25.79,25.79,0,0,0-2.74-.64h-.48l-2.43-.9s-3.26-.06-3.74,0-1.59.58-2,.58a17.89,17.89,0,0,1-2.43-.76H354l-2.79,2.59-.76.24-4.77.75c-5.61-1.19-7.36.72-9.07,2.11a2.75,2.75,0,0,1-3,.64l-1.11-.44-1.43-1-4-2.59-1.87-2.15-1.39-1.19,0,1.67-.56,1.71-1.67.36.2-1.35.2-2.71.48-2.27-.92-1.11c-4.77-3.86-4.21-7.72-2.31-6.88,1.83,1.31,2.23,0,2.23,0l1.08-2.79-.48-3.85-.32-.68-4.06-5.93-3.74-6.84-1.67-4.1-.16-1-5.33-11.54L302,604.56l-4.1-5.33-3.34-7v-2.78l-.2-.8-2.15-2.19-.08-4-1.19-3.31h-.83s-.2-1.75-.32-3.1-.68-1.15-.68-1.15l-.52-.36-.43-.36v-.63l.31-.32.08-.6.2-.48.28-.47-.08-.52-.36-.28-.39-.36v-.79l0-.84.27-.67-.12-1a4.38,4.38,0,0,1-1.15-5.77l-.36-3-.75-.32-.2-.28v-.63h.6l0-1.83h1.59v-2l-.08-1.83-.8-1.79-1-1.35-3.42-3.47,0-1.87-1.4-1-.39-.6L279.13,539l-1.2-1.63-.2-.48-.91-3.78-.16-.32L275,530.49,274,528.86l-1.08-2.3-1-1.83-1-1.56-.48-1.51-.63-.83-.24-.56-.52-1.35-.55-.36-.32-.52-1.39-1.67-.72-1-.8-.72-1.27-1.79-.68-.83-.39-.56-.56-1.27.2-4.66,0-7.44-.08-4.05s.36-.32.52-2.23a3.23,3.23,0,0,1,1.39-2.59l.24-3.62,1.23-1.15,1.35-3-.15-2.07v-1.95l.63-3.26,1.55-1.28-.32-3.46,2.07-2.34,1-1,.59-.71-.15-.6.11-1.31.52-.8.76-.64,1.19-.39,1.79-.36,1.59-1.43,2.51-5-.16-3.26.44-2.5-1.28-3.86-.71-2.19-.32-.48L277.66,441l-1-1.55-.87-1.75-.08-.92L273,430.89l0-2.63.68-.51.59-.56.8-.72.91-1,.48-.92-.16-1.23-.24-1.63-4.25-7.16-.28-1-.8-4.25-3.58-4.66-.19-.71-.24-.56-.24-.76-.08-.51.24-.88-.4-1.19-.48-1.15-.44-1.08-.47-1.07-.52-1.39-.16-1.16,0-.36.16-.2-.16-.15,0-.24-.12-.2h-.28l-.32-.52-.47-1-4-6.69-6.6-6.6-2-2-3.11-3.82-2.34-1.83,0-.47v-.56l.55-.76-1.27-1.11-.4-.36-.83-.24H242l-.51-.36L240,364.18v-1.83l-.59-.6h-.56l-.79-.47.39-.88.36-1.67-.16-1.39-1.87-.4-1.11-.16-.32-.83-.52-1.2-.63-1.47-.68-.56-.75-1.83,2.54,1.16v-.4l0-.56.24-.47.68-.44,1.27-1.51.52-3.7-1.48-2.47,2.35-3.06,1-1,.43-1.51v-2.11c0-.51-1.63-.52-1.63-.52l-.12-2,4.06-5.53-.48-2.87,1.44-10-2-2.07-1.12-2.35,1.16-1.31.59-2.51-.55-1.27-3,2.63h-1.79l-2.27-1.32-.71-3.93-2.67-.2-.71-2.43-2.75-.76.28,3.11-.91.16-2.83.2-2.74.23s-1.63-1.71-1.63-1.27a1.3,1.3,0,0,1-.36.8l-3.94.28-.6,1.07-.67-2.27-.76.32-.28,2.23c-.75-.8-1.59.59-1.59.59l-2.58-.15-.52.59h-1.39l-.92-.2-1.11-1.63-1.55-1.71-1.59-3.62-.28-.79,0-.2-.28-2.67-4-5.49-3.82-2.78-10.82-1.39-5.45,0-5.13,1-3.3.08-.64.12-3.1.36-.2.36a22.07,22.07,0,0,0-1.87,2.7c-.08.4-1,.8-1,.8s-3.46.43-4.06.12a4.77,4.77,0,0,0-1.83-.28l-1.43.43-1.59.64-2.83,1.27-1.51.68-2.46.92-1.79.71-1.32.68-1.11.4-1.27.47-2.11.56-2.59.6-3.18,2.22-1.27-.59-1.67-.68-1.4-.52-.71-.12-2.39-.75-3.3-.6-4.18-.56-1.31-1.35-3.94,0h-3.14l-1.12.36-1.07.32-1.55.32h-1.51l-2.23,0-2.43-.16-1.07.28-1.59.35-2,1-2.47,1.27-2.58.92-2.79,1.15L82.74,301h-.36l-2-.79-1.51-.52-4-1.27-5.21-3.11-1-1.39-1.59-.16-2.71-3.5-3.86-3.9L58.83,284l-2.11-.8-2.58-.48-1.55-2.19,0-1.11-.56-.32-1.43-1.31-1.67-1.27-1.59-1.16L42,272.05l-1.16-.6L39.26,270H36.48l.43-1.71-.08-.36-1.07-1.43-.72-.79-.43-1.28-.24-1.67-2.15-.63-.16-3.74.24-1a10.4,10.4,0,0,0,.88-2.94,11.2,11.2,0,0,0-1.36-2.79l-1.71-1L29,248.94l.36-2.47s-2.43-1.59-3.07-1.87A14.7,14.7,0,0,1,24,242.77l-.36-.43-1-2-.75-1.91-.76-1.51-.32-.4L20.29,234H19l-2-2.11-1.4-.67,1-.8v-1.31l-1.16,1.31-.75-1.63,0-.79.79-.56-1.87-.16-1.11.52-1.19-.44-1.28-1.71-1.23-1.08-.48-2.86-2.15-.44-1.39-1.71,1-6.88.24-.76-.36-2.78,2-1.75.75-1.31.24-1.79-1.55,1.27-1-1.59,0-.44-1-3.06-1.91-1.87L2,198.94l-.52,1.51L0,197.78l1-.28.72-.27,1.11-.8,1.2-.91.87-1,1.87-2.31,1.12-1.83,2.66-3.89.56-4.18,1.31-2.94,3.78-6.85,1.15-4.13V157.61L15.75,155l-.28-1.39,1.24-2.71,1.43-2.74.72-3.7-.6-3.34H16.75l-.6-1.59-1-.24L14,139l-.87-.24h-.56l-.44-.32a4.29,4.29,0,0,1,1-2.5l.75-2,.48-2.79,2.55-4.41L18.66,125l1.83-.52L22.4,122l.27-1.82.92-.56.44-2.39,4-5a4.44,4.44,0,0,1,.92-2.39l.64-.32,4.73-3.06,3.3-2.74.32-4.3,1.83-3.74.48-.76.32-.35h.27l.48-.4,1-1.19,1.19-1.72,1.39-2v-.4l.6-.48,3.22-1.23L51.44,86l1.63-3.38,2.7-3.74,1.47-2.5L58.48,75l1.71-.35L65,74.23l4.38-1.59,1.23-.32,2.78-1.19,2.47-2.79h2.62l6.33-5.77,3.94-3,1.35-1.91L90.82,56l-.16-2.83-1-1.15.76-3.1a29.5,29.5,0,0,0,.48-3,4.46,4.46,0,0,1,1-2.42l2.59-2.59c2.18-.91,1.87-1.51,1.87-1.51a32.92,32.92,0,0,0,1-4.3l4.46-3.81,3.1-2.39,1.11-.68,2.71-.87,6.52-2.63,2.27-.55,2.62-1.83,1.51-2.91,3.11-4,1.07-1.39.44-.87L129,7.92l4.54-.72.83,2.23V10l1.52,2.71,4.57,1.51,3.38-.32,2-.43,1.12.79h2.34l1.95-.79,1.19,1.79,1.64.83,2.78-.16,1.67.44,2.51-.56.83-.59,6-3.94c1.39,0,1.59.12,2.19-.84a1.91,1.91,0,0,1,1.51-1l3.54.36c3.86-1.56,3.86-2.15,3.86-2.15l1.35-1.08L181.71,6s4.66-1.59,5.53-1.71,7.68,0,7.68,0l1.23.27,3.07.08,2.54-1.19,1.87-.28,2.55-.71L207,2l3.82.48,2.71.2,3.18,2,3.18-.19,2.71-.92,2.58-1.31L226.58,2l2.59,1.27h.91l1.24-.12,1.91-.87c-.12-.72,1-.48,1-.48l4.54,2.39,2.82,0,2.7-1,3.15-1.95L250.65,0h1.91l.36,1.15h1.67l.87.4,1.4,3.18-.28.72L258.09,5,260.2,3.1l1.19-.59.6,1.15.08.6.43.71.08.24-.12.4A22.6,22.6,0,0,0,260,8.31a11.38,11.38,0,0,1-2.59.4c-.47,3.11,0,3.26,2.11,4.9s1.35.87,1.79,2.58a5,5,0,0,1-.08,2.94L258.73,24a7.19,7.19,0,0,1-5.34,2.86,3.72,3.72,0,0,0-.27,4.78,6.68,6.68,0,0,0,1.83.83,4.05,4.05,0,0,1,1.59.68c.12.12.16.44.44.83s1.15.84,1-.75,2.27-1.59,2.27-1.59v2.54l1.67,2.71,1.47.75,1.75,1L268.47,40l3.06,1.51,1.08.36,2.46-.16,7.76,0,2.75,1.19,2.11,1.75,2.38.12,3.86.64.68,1,.55,1.19.36.83.28,1.16v.87l.24,1,.44.79.51.8.72.83.76.36,2,.76,2.51.67,2,0,2.74.24,1.67.24.76.4,1,.6,2,1.15,2,1.47,2.47,1.87,1.47.64,2.63,1,2.58.92h2l3.5-1.08,2.19-1.11.75-.68.48-.75.56-.56.71-.56.52-.95,0-.84L333,53.19l-.16-.68V47.62l.28-.44.76-.83.71-.68,1-.8,1.15-.71,1.43-.76,2.15-.71,2.39-1,2.66-.95,2.75-1.08,3.14.4,4.42,1.43,1.27.44,1.35.4V44.6c.2,1.51,1.24,1.51,1.24,1.51l4.05.36.68.59,1.23.8.28,0,1.31,0,1-.36,4-.52,2.11,1.24.2.19a10.59,10.59,0,0,1,1,2.15,7.49,7.49,0,0,0,1,1.47h8.39l6.53.48,2.46.44,5.81,1.55,5.93,1,1.47,1.47h3.34l1.75-1.32,1.79-1.39L415.69,53,417,51.86l1.28-.62.67-.8,4.78-.59,1.07-.6,1.75.84,2.71.55,1-1.63,2.55,1.35L434,51.64c.4-.48.84-.4,1-.16a11.1,11.1,0,0,0,1.27,1.67c0-.12,1.23-.24,1.23-.24l3.06-.12.56-1.39,3.58.68,2.19-.72,1.35-.56,1.55-.87.72,2.1,1.23,1.72,1,1m-215.14,257-.27-1.51-1.87-1.08-.88,1.39-.59,3,2.18.8A7.8,7.8,0,0,0,237.55,311.72ZM473.92,564.85l.79-.55-.39-.52a1.52,1.52,0,0,0-1.16.2Zm1-1.79.4-1.11-1.37.32.22.52Zm.33-2.76h-.51l-.72.41v.63h1.23Zm51.6-97-.52-.36v.51l-.24.25.47.25ZM527,460l.25-.61-.43-.36-.14.49-.24.19Zm.51,1.14c-.1-.2-.29-.3-.44-.23s-.17.29-.07.49.29.3.43.23A.36.36,0,0,0,527.53,461.16Zm.55-2.54c-.09-.17-.25-.26-.37-.2a.32.32,0,0,0-.07.42c.09.16.25.25.37.19A.31.31,0,0,0,528.08,458.62Zm-.24-1.24c-.06-.19-.21-.31-.35-.27a.32.32,0,0,0-.15.42c0,.19.21.32.35.28S527.9,457.58,527.84,457.38Zm-.77,5a.29.29,0,0,0-.13-.39c-.13,0-.28.08-.33.25a.3.3,0,0,0,.13.4C526.87,462.7,527,462.58,527.07,462.4Zm1-2.31a.29.29,0,0,0-.13-.39c-.13,0-.28.07-.33.25a.3.3,0,0,0,.13.4C527.89,460.39,528,460.27,528.09,460.09Zm-9-56.74.28-4.27-1.19-2.92-1.12.29-.94,1.95.51,2.85Zm2.31-10.12,1.08-1.84-.25-3.25-1.74-.4v4.59ZM55.12,65.49l3.18-1.08-.47-2.28-4.19,1.68ZM54.4,67.4l-1.16-1.66L51.62,67.4l-3.94,5,.9.33,2.1-1.59,1.91-.51ZM37.93,74.27l1.62-1,1.05-2.42-1.12-1.15-1.55.76L36.3,72.75Zm-6.47-3.65,3-3.87L29,67.08l.79,4.37Zm-5.2.07V68.38H24.49l.32,1.77Zm-4.59-6,1.16-.29V62l-1.67-.62-.5,2.13Zm194,284.47.68-.43V348h-1Zm1.22-3,.18-.36-.18-.33-.25.34ZM551.76,581.69l2-.51v-.45h1.74l.52-.46.71-1.22.32-.46.65-.32h1l6.07-.52.52.84s.13.26,1.42-.39l3-1.48.51-.65.52-1.1,1.23-3.88.84-.51v-1s-.19-.58.71-.58.91-1,.91-1.1,1.1-2.91,1.1-2.91,1.93-.33,1.42-3.62l.09-1.3,1.39-.45V558.1l.65-.32.32-1,.33-1.94.77-.39.33-.45.32-1,.26-.9.32-.78.33-.39.51-.25.45-.33v-1.68a1,1,0,0,1,.78-.9c.78-.2,1-1.62,1-1.62s1.81-3.94,1.81-3.94a7.11,7.11,0,0,0-.26-1.49c-.26-1,.39-1,1-1s.84-.13,1-1.43a18.83,18.83,0,0,1,.65-2.64l.71-1.69,1.1-1.16.84-.78.39-.77a5.42,5.42,0,0,0,.32-1.88c0-1.09,0-2.19.91-2.52s.71-.84.77-1.48a2.74,2.74,0,0,1,1.36-2.27,3.37,3.37,0,0,0,1.23-2.45c0,.06,1.36-1.36,1.36-1.36v-1.36l.38-.45,1-.58.33-.78.32-2.58.39-1.55,1.55-2.4a5.72,5.72,0,0,0,0-2.78c-.39-1.42-.45-1.68.52-2.78s1.55-1.87,1.55-1.87h1.49v-1.75l.84-.32s1.48-2.91,0-9.18-.52-1.87-.52-1.87l2.26-.13,1,3.62.64,1,1.17-.51s1-.52,1-2.4A4.91,4.91,0,0,1,613,487.5s.26-.44-.9-2.12L612,483.7l.77-4.08-.06-1-.39-.77.74-.58h-1.32l.58-2.85.13-2.07-.58-1.22-.06-.84.32-1.56-1.62-5s.33-.39-2.26-1.3a1.54,1.54,0,0,1,.18-1.92l-.71-.35-.67-1.31.18-.21h-.58s-.36.25-.4.39-.89,0-.89,0l.3-1.32.89-.75.1-.21v-.42l-.11-.16-.49-.5v.69l-.26.06-.41-.33-.26.15,0,2-.16.3-.47.14L604,459l-.55.15-.15.25-.12.5-.13.42v.21l-1,0,0-.67-1.12,0,1.1,1.34,0,1.38.63,1.08,0,.24-1.66,1.9-.08,1.83a1.18,1.18,0,0,1-1.41,1c-1.24-.23-1.47.45-1.77,1.18s-.12.42-.12.42l-1,0,0,1.66-.09.15-.49,0,0,.23-1.06-.35.05-1.32-2.39-.65-1.41,3,.47,0,.92.63-.34,1,.73,0v.56l-.19.33-.17.05,0,.39-.36.54-1-1.17-.08,1.25-2.64,1.4.18.23v.89l.24.26.46.19,1.15.43.29-.62h.7l.35,3.27-.75.06,0-1.36-.29-.14-.3-.23-.36-.33-.63.09-.37.15-.36.09-.27.37-.74,1.29-.41.68-.43.55-.52.47-.58.11-.16-.33v-.66l.21-.34.22-.34.3-.34.26-.05,0-.49.07-.59-.65-.57a8,8,0,0,0-1.83,2.59,3,3,0,0,1-1.71,1.83c0,.09-.15.23.86.27l.15,1.22.23.4.59-.39.53,0,.19.09,0,.64-.82.49-3.15,1.83.33-2.58s1.66-2.93-1.06-1.27l-.63.82-.42.14-.52.14-.66.07h-.54s-.94.21-1.26,4l1,.77,0,1.88-2.34-2.21-.05-.7.09-.19v-.83l-1.38.34,0,.7-.44,0-.29-.2-.44-.85-1.41.33,0-.24-.68-.42-1,2,.35,1-1.38.12v-1.06l-1.36-.31-1.3.94v-1.05l-.13-.19-.27,0v.63l-2,.78a3,3,0,0,0-.9,1.15c-.51.93-3.86-.07-4.12.12a30.28,30.28,0,0,0-.87,4.34l-.37.79-.2.24-.4.21-.51.21-.42.24-.19.37-.33.65-.28.74-.33.72-.23.68-.21.36-.5.58-.65.73-.47.53-.33.36-.12.33,1.34,2,0,.72-.64.89,0,1.44.7,1.73-.31,0-.35.92.73.46v1.27l-.11.12v.91l.7.64,0,1-.65,1.71,0,1.39s2.22,0,1.52,2.95a5.14,5.14,0,0,1-1.17,2.37c-.85.8.49,1.06.68.71s.07,1.24.07,1.24l-.4.63-.26.48-.12.48-.12.33-.33.47-.16.19-2.35,2.47-.14.42v.87l-1.19,1.15-.45-.24-.19-.09-.18.13-.14.26-.22.45-.2.64v.44l-.36,1.17-.25.63-.24.5-.54.46-.79.31-.83.31-.59.16-.75.23v.76h-.7v2l-2,1.53-.32,1.47-.12.36.19-.1.25.28v.29l0,.81-.12.27-.17.27-.34.12-.27.12v.47l.26.12.26.19.24.18.18.09v1l-.19.57-.19.47,0,.84v.7l.09.24.22.49.44.59.33.61.59.79.19.28.18.43.14.45.14.54v.61l0,.46.1.43v.51l.13.57.19.67-.07.36-.09.14-.37,0-.36.08-.16.16-.09.3v.35l.07,1.15v.15l-.14.26-.24.11-.28,0-.33,0,0,1.57.09,2.32.16,2.44.22,1.53.14.37.28.38.49.35.38.37.47.36.3.3.09.17v.14l-.09.18-.21.14-.1.19s-.11.8,1.08.64,1.25.72,1,1.22,0,.67.91.74a14.17,14.17,0,0,1,2.4.52l1.43.47.35.17v1.05l1.25.58ZM606.36,501l-.63,1.73s0,.64.45.19a4.74,4.74,0,0,1,1.06-.78l-.08-.61Z"/></clipPath></defs><g id="Layer_2" data-name="Layer 2"><g id="Layer_1-2" data-name="Layer 1"><g class="cls-2"><path class="cls-3" d="M53.15-9.25,39.46,14.46l-7.54,2-3.51-2L42.09-9.25Zm-11.91,0L27.77,14.09,12.44,5.24,20.81-9.25ZM20-9.25,11.8,4.87-3.41-3.91-.33-9.25Zm-21.14,0L-4-4.28l-8.61-5Z" transform="translate(367.92 54.63)"/><path class="cls-3" d="M135.67-9.25l1.9,7.1L105.85,52.79l-7.55,2-3.51-2,35.82-62Zm-5.91,0L94.15,52.42,78.83,43.57l30.5-52.82Zm-21.29,0L78.19,43.2,63,34.41,88.18-9.25Zm-21.14,0L62.33,34,47.12,25.26,67-9.25Zm-21.14,0L46.48,24.89,42.86,22.8l-2-7.54L55-9.25Z" transform="translate(367.92 54.63)"/><path class="cls-3" d="M230.19-9.25,210.28,25.23l-7.55,2-3.51-2L219.13-9.25Zm-11.92,0-19.69,34.1L183.26,16,197.84-9.25ZM197-9.25,182.62,15.64,167.4,6.85l9.3-16.1Zm-21.14,0L166.76,6.48,151.54-2.3l4-6.95Zm-21.15,0-3.8,6.58-3.61-2.09-1.2-4.49Z" transform="translate(367.92 54.63)"/><path class="cls-3" d="M198.43,26.6l3.51,2,2,7.54-31.72,55-7.55,2-3.51-2Zm-16-9.21,15.33,8.84L160.54,90.74,145.22,81.9ZM166.61,8.23,181.82,17,144.58,81.53l-15.22-8.79ZM150.75-.92,166,7.86,128.72,72.37,113.5,63.59ZM139-1.36l7.55-2,3.61,2.09L112.86,63.22l-3.61-2.09-2-7.54Z" transform="translate(367.92 54.63)"/><path class="cls-3" d="M318.7-9.25l-4,6.92-7.55,2-3.51-2,4-6.91Zm-11.91,0L303-2.71,291.67-9.25Z" transform="translate(367.92 54.63)"/><path class="cls-3" d="M302.86-1l3.51,2,2,7.54-31.72,55-7.55,2-3.51-2ZM288.49-9.25l13.73,7.92L265,63.18l-15.32-8.84L286.36-9.25Zm-3,0L249,54l-15.22-8.79L265.22-9.25Zm-21.15,0L233.15,44.81,217.93,36,244.07-9.25Zm-21.14,0L217.29,35.66l-3.61-2.09-2-7.55L232-9.25Z" transform="translate(367.92 54.63)"/><path class="cls-3" d="M264.81,64.93l3.51,2,2,7.54-31.73,54.95-7.54,2-3.51-2Zm-16-9.22,15.32,8.85-37.24,64.51-15.33-8.84ZM233,46.56l15.22,8.78L211,119.86l-15.21-8.79ZM217.14,37.4l15.21,8.79L195.11,110.7l-15.22-8.78ZM205.34,37l7.54-2L216.5,37l-37.25,64.52-3.61-2.09-2-7.55Z" transform="translate(367.92 54.63)"/><path class="cls-3" d="M407.22-9.25,381.09,36l-7.54,2L370,36,396.16-9.25Zm-11.91,0L369.4,35.62l-15.33-8.85,20.8-36ZM374-9.25,353.44,26.4l-15.22-8.78L353.73-9.25Zm-21.14,0-15.3,26.5L322.36,8.46,332.59-9.25Zm-21.14,0-10,17.34L318.11,6l-2-7.55,4.45-7.71Z" transform="translate(367.92 54.63)"/><path class="cls-3" d="M369.24,37.37l3.51,2,2,7.55-31.72,55-7.54,2-3.51-2Zm-16-9.22L368.6,37l-37.24,64.51L316,92.66ZM337.42,19l15.22,8.78L315.39,92.29l-15.21-8.78ZM321.57,9.84l15.21,8.79L299.54,83.14l-15.22-8.79Zm-11.8-.43,7.54-2,3.62,2.08L283.68,74l-3.61-2.08-2-7.55Z" transform="translate(367.92 54.63)"/><path class="cls-3" d="M331.2,103.26l3.51,2,2,7.54-31.72,55-7.55,2-3.51-2Zm-16-9.22,15.32,8.85L293.32,167.4,278,158.55Zm-15.86-9.15,15.22,8.78-37.25,64.52-15.22-8.79Zm-15.86-9.16,15.22,8.79L261.49,149l-15.21-8.79Zm-11.8-.43,7.55-2,3.61,2.08-37.24,64.52L242,137.79l-2-7.55Z" transform="translate(367.92 54.63)"/><path class="cls-3" d="M495.73-9.25,485.52,8.43l-7.54,2-3.51-2L484.68-9.25Zm-11.91,0-10,17.31L458.5-.79l4.89-8.46Zm-21.28,0-4.68,8.09-14-8.09Z" transform="translate(367.92 54.63)"/><path class="cls-3" d="M473.67,9.81l3.51,2,2,7.55L447.48,74.32l-7.55,2-3.51-2Zm-16-9.22L473,9.44,435.79,74,420.46,65.1ZM441.85-8.57,457.07.22,419.82,64.73,404.6,56Zm-1.19-.68.55.32L404,55.58l-15.22-8.79,32.36-56Zm-20.41,0L388.11,46.42l-3.62-2.08-2-7.55,26.59-46Z" transform="translate(367.92 54.63)"/><path class="cls-3" d="M435.63,75.7l3.51,2,2,7.55-31.72,54.94-7.55,2-3.51-2Zm-16-9.22L435,75.33l-37.25,64.51L382.42,131Zm-15.86-9.15L419,66.11l-37.25,64.51-15.22-8.78ZM388,48.17,403.17,57l-37.25,64.51-15.21-8.79Zm-11.8-.43,7.55-2,3.61,2.09-37.24,64.51-3.62-2.08-2-7.55Z" transform="translate(367.92 54.63)"/><path class="cls-3" d="M397.59,141.59l3.51,2,2,7.55L371.4,206.1l-7.55,2-3.51-2Zm-16-9.22L397,141.22,359.7,205.73l-15.32-8.85Zm-15.85-9.15L381,132l-37.24,64.51-15.22-8.78Zm-15.86-9.16,15.22,8.79-37.25,64.51-15.22-8.79Zm-11.8-.43,7.55-2,3.61,2.08L312,178.2l-3.61-2.08-2-7.55Z" transform="translate(367.92 54.63)"/><path class="cls-3" d="M583.72-9.25l.35,1.32L552.35,47l-7.55,2-3.51-2L573.78-9.25Zm-10.8,0L540.65,46.64l-15.32-8.85,27.16-47Zm-21.28,0L524.69,37.42l-15.22-8.78L531.35-9.25Zm-21.14,0L508.83,28.27l-15.21-8.79L510.21-9.25Zm-21.15,0L493,19.11,489.36,17l-2-7.55L498.16-9.25Z" transform="translate(367.92 54.63)"/><path class="cls-3" d="M540.5,48.39l3.51,2L546,58,514.31,112.9l-7.55,2-3.51-2Zm-16-9.22L539.86,48l-37.25,64.51-15.32-8.85ZM508.68,30l15.21,8.78-37.24,64.52-15.22-8.79Zm-15.86-9.16L508,29.65,470.79,94.16l-15.22-8.79ZM481,20.43l7.55-2,3.61,2.08L454.93,85l-3.61-2.09-2-7.55Z" transform="translate(367.92 54.63)"/><path class="cls-3" d="M502.45,114.28l3.52,2,2,7.54-31.73,55-7.54,2-3.51-2Zm-16-9.22,15.33,8.85-37.25,64.51-15.32-8.85Zm-15.86-9.15,15.22,8.78-37.24,64.52-15.22-8.79Zm-15.85-9.16L470,95.54l-37.25,64.51-15.22-8.79ZM443,86.32l7.54-2,3.62,2.08L416.89,150.9l-3.61-2.09-2-7.55Z" transform="translate(367.92 54.63)"/><path class="cls-3" d="M464.41,180.17l3.51,2,2,7.54-31.72,54.95-7.54,2-3.51-2Zm-16-9.22,15.32,8.85-37.24,64.51-15.33-8.85Zm-15.86-9.15,15.22,8.78L410.56,235.1l-15.21-8.79Zm-15.85-9.16L432,161.43l-37.24,64.51-15.22-8.79Zm-11.8-.43,7.54-2,3.62,2.08-37.25,64.52-3.61-2.09-2-7.55Z" transform="translate(367.92 54.63)"/><path class="cls-3" d="M673.35-9.25l-16.57,28.7-7.55,2-3.51-2,16.57-28.7Zm-11.91,0L645.08,19.08l-15.32-8.85L641-9.25Zm-21.28,0-11,19.11L613.9,1.08l6-10.33ZM619-9.25l-5.75,10L598-8.08l.68-1.17Zm-21.14,0-.47.8L596-9.25Z" transform="translate(367.92 54.63)"/><path class="cls-3" d="M644.93,20.83l3.51,2,2,7.55L618.74,85.34l-7.55,2-3.51-2Zm-16-9.22,15.33,8.85L607,85l-15.32-8.85ZM613.11,2.45l15.21,8.79L591.08,75.75,575.86,67ZM597.25-6.7l15.22,8.79L575.22,66.6,560,57.81Zm-11.8-.43,7.55-2,3.61,2.09L559.36,57.44l-3.61-2.08-2-7.55Z" transform="translate(367.92 54.63)"/><path class="cls-3" d="M606.88,86.72l3.51,2,2,7.55-31.73,54.94-7.54,2-3.51-2Zm-16-9.22,15.32,8.85L569,150.86,553.67,142Zm-15.86-9.15,15.22,8.78L553,141.64l-15.22-8.78Zm-15.85-9.16L574.42,68l-37.24,64.51L522,123.7Zm-11.8-.43,7.54-2,3.62,2.08-37.25,64.51-3.61-2.08-2-7.55Z" transform="translate(367.92 54.63)"/><path class="cls-3" d="M568.84,152.61l3.51,2,2,7.55-31.72,54.94-7.54,2-3.51-2Zm-16-9.22,15.32,8.85L531,216.75l-15.33-8.85ZM537,134.24,552.24,143,515,207.53l-15.21-8.78Zm-15.86-9.16,15.22,8.79-37.24,64.51-15.22-8.79Zm-11.79-.43,7.54-2,3.62,2.08-37.25,64.51-3.61-2.08-2-7.55Z" transform="translate(367.92 54.63)"/><path class="cls-3" d="M530.8,218.5l3.51,2,2,7.55L504.61,283l-7.55,2-3.51-2Zm-16-9.22,15.32,8.85-37.25,64.51-15.32-8.85ZM499,200.13l15.22,8.78L477,273.42l-15.22-8.78ZM483.12,191l15.22,8.79-37.25,64.51-15.21-8.79Zm-11.8-.43,7.55-2,3.61,2.08-37.24,64.51L441.62,253l-2-7.55Z" transform="translate(367.92 54.63)"/><path class="cls-3" d="M761.87-9.25l-.66,1.14-7.55,2-3.51-2,.66-1.14ZM750-9.25l-.45.77-1.34-.77Z" transform="translate(367.92 54.63)"/><path class="cls-3" d="M749.35-6.74l3.51,2,2,7.55L723.17,57.78l-7.55,2-3.51-2ZM745-9.25l3.72,2.15L711.47,57.41l-15.32-8.85L729.52-9.25Zm-16.32,0L695.51,48.19l-15.22-8.78L708.38-9.25Zm-21.14,0L679.65,39l-15.22-8.79,22.81-39.5Zm-21.14,0-22.6,39.13-3.61-2.09-2-7.54,17-29.5Z" transform="translate(367.92 54.63)"/><path class="cls-3" d="M711.31,59.15l3.51,2,2,7.55-31.73,54.94-7.54,2-3.51-2Zm-16-9.21,15.32,8.85L673.43,123.3l-15.33-8.85Zm-15.86-9.16,15.22,8.79-37.25,64.51-15.21-8.78Zm-15.85-9.15,15.21,8.78-37.24,64.52-15.22-8.79Zm-11.8-.44,7.54-2L663,31.26,625.75,95.77l-3.61-2.08-2-7.55Z" transform="translate(367.92 54.63)"/><path class="cls-3" d="M673.27,125.05l3.51,2,2,7.55-31.72,54.94-7.54,2-3.52-2Zm-16-9.22,15.32,8.85-37.24,64.51-15.33-8.85Zm-15.86-9.16,15.22,8.79L619.42,180l-15.22-8.78Zm-15.86-9.15,15.22,8.79-37.24,64.51L588.35,162Zm-11.8-.43,7.55-2L625,97.15l-37.24,64.51-3.62-2.08-2-7.55Z" transform="translate(367.92 54.63)"/><path class="cls-3" d="M635.23,190.94l3.51,2,2,7.55L609,255.45l-7.55,2-3.51-2Zm-16-9.22,15.32,8.85-37.25,64.51L582,246.23Zm-15.86-9.16,15.22,8.79-37.25,64.51-15.22-8.78Zm-15.86-9.15,15.22,8.78-37.25,64.52-15.21-8.79Zm-11.8-.43,7.55-2,3.61,2.09-37.24,64.51-3.62-2.08-2-7.55Z" transform="translate(367.92 54.63)"/><path class="cls-3" d="M597.19,256.83l3.51,2,2,7.55L571,321.34l-7.55,2-3.51-2Zm-16-9.22,15.33,8.85L559.3,321,544,312.12Zm-15.85-9.16,15.21,8.79-37.24,64.51L528.12,303Zm-15.86-9.15,15.22,8.79L527.48,302.6l-15.22-8.79Zm-11.8-.43,7.55-2,3.61,2.09-37.25,64.51L508,291.36l-2-7.55Z" transform="translate(367.92 54.63)"/><path class="cls-3" d="M850.38-9.25,827.59,30.22l-7.54,2-3.51-2L839.32-9.25Zm-11.91,0L815.9,29.85,800.57,21,818-9.25Zm-21.28,0L799.93,20.63l-15.21-8.79L796.9-9.25Zm-21.14,0-12,20.73L768.86,2.69l6.9-11.94Zm-21.15,0L768.22,2.32,764.61.23l-2-7.54,1.13-1.94Z" transform="translate(367.92 54.63)"/><path class="cls-3" d="M815.74,31.59l3.51,2,2,7.55L789.55,96.11l-7.54,2-3.51-2Zm-16-9.21,15.32,8.84L777.86,95.74l-15.33-8.85Zm-15.86-9.16L799.14,22,761.89,86.52l-15.21-8.79ZM768.06,4.07l15.22,8.78L746,77.36l-15.22-8.78Zm-11.8-.44,7.55-2,3.61,2.09L730.18,68.21l-3.61-2.09-2-7.54Z" transform="translate(367.92 54.63)"/><path class="cls-3" d="M777.7,97.48l3.51,2,2,7.55L751.51,162,744,164l-3.51-2Zm-16-9.21,15.32,8.84-37.25,64.52-15.32-8.85Zm-15.86-9.16L761.1,87.9l-37.25,64.51-15.22-8.79ZM730,70l15.22,8.78L708,143.26l-15.21-8.79Zm-11.8-.44,7.55-2,3.61,2.09L692.14,134.1,688.52,132l-2-7.54Z" transform="translate(367.92 54.63)"/><path class="cls-3" d="M739.66,163.37l3.51,2,2,7.55-31.72,54.94-7.55,2-3.51-2Zm-16-9.21L739,163l-37.25,64.51-15.32-8.85ZM707.84,145l15.22,8.79L685.81,218.3l-15.22-8.79ZM692,135.85l15.22,8.78L670,209.15l-15.22-8.79Zm-11.8-.44,7.55-2,3.61,2.09L654.1,200l-3.62-2.09-2-7.54Z" transform="translate(367.92 54.63)"/><path class="cls-3" d="M701.62,229.26l3.51,2,2,7.55-31.72,54.94-7.55,2-3.51-2Zm-16-9.21L701,228.9l-37.25,64.51-15.32-8.85Zm-15.85-9.16L685,219.68l-37.24,64.51-15.22-8.78Zm-15.86-9.15,15.22,8.78L631.91,275l-15.22-8.79Zm-11.8-.44,7.55-2,3.61,2.09-37.25,64.51-3.61-2.09-2-7.54Z" transform="translate(367.92 54.63)"/><path class="cls-3" d="M663.57,295.15l3.51,2,2,7.55-31.73,54.94-7.54,2-3.51-2Zm-16-9.21,15.33,8.85L625.69,359.3l-15.33-8.85Zm-15.86-9.16L647,285.57l-37.24,64.51-15.22-8.78Zm-15.85-9.15,15.22,8.78-37.25,64.52-15.22-8.79Zm-11.8-.43,7.54-2,3.62,2.09L578,331.77l-3.61-2.08-2-7.55Z" transform="translate(367.92 54.63)"/><path class="cls-3" d="M938.9-9.25,932,2.66l-7.54,2-3.51-2,6.87-11.9ZM927-9.25,920.33,2.28,905-6.56l1.56-2.69Zm-21.29,0-1.34,2.32-4-2.32Z" transform="translate(367.92 54.63)"/><path class="cls-3" d="M920.17,4l3.51,2,2,7.54L894,68.55l-7.55,2-3.51-2Zm-16-9.21,15.32,8.84L882.28,68.17,867,59.33Zm-7.05-4.07,6.41,3.7L866.32,59,851.1,50.17,885.41-9.25Zm-12.6,0L850.47,49.8,835.25,41l29-50.27Zm-21.14,0-28.81,49.9L831,38.56,829,31,852.22-9.25Z" transform="translate(367.92 54.63)"/><path class="cls-3" d="M882.13,69.92l3.51,2,2,7.55-31.72,54.94-7.55,2-3.51-2Zm-16-9.21,15.32,8.84-37.25,64.51-15.32-8.84Zm-15.86-9.16,15.22,8.79-37.25,64.51-15.22-8.79ZM834.45,42.4l15.22,8.78-37.25,64.51-15.21-8.78ZM822.65,42l7.55-2L833.81,42l-37.24,64.51L793,104.45l-2-7.54Z" transform="translate(367.92 54.63)"/><path class="cls-3" d="M844.09,135.81l3.51,2,2,7.55L817.9,200.33l-7.55,2-3.51-2Zm-16-9.21,15.33,8.84L806.2,200l-15.32-8.85Zm-15.85-9.16,15.21,8.79-37.24,64.51L775,182Zm-15.86-9.15,15.22,8.78-37.25,64.51-15.22-8.78Zm-11.8-.44,7.55-2,3.61,2.09-37.25,64.51-3.61-2.09-2-7.54Z" transform="translate(367.92 54.63)"/><path class="cls-3" d="M806.05,201.7l3.5,2,2,7.55-31.72,54.94-7.55,2-3.51-2Zm-16-9.21,15.33,8.84-37.25,64.52L752.84,257Zm-15.86-9.16,15.22,8.79L752.2,256.63,737,247.84Zm-15.85-9.15L773.59,183l-37.25,64.51-15.22-8.78Zm-11.8-.44,7.54-2,3.62,2.09-37.25,64.51-3.61-2.09-2-7.54Z" transform="translate(367.92 54.63)"/><path class="cls-3" d="M768,267.59l3.51,2,2,7.55-31.73,54.94-7.54,2-3.51-2Zm-16-9.21,15.32,8.84-37.24,64.52-15.33-8.85Zm-15.86-9.16L751.4,258l-37.25,64.51-15.21-8.79Zm-15.85-9.15,15.21,8.78L698.3,313.36l-15.22-8.78Zm-11.8-.44,7.54-2,3.62,2.09-37.25,64.51-3.61-2.09-2-7.54Z" transform="translate(367.92 54.63)"/><path class="cls-3" d="M730,333.48l3.51,2,2,7.55L703.77,398l-7.54,2-3.51-2Zm-16-9.21,15.32,8.84-37.24,64.52-15.33-8.85Zm-15.86-9.16,15.22,8.79-37.25,64.51-15.21-8.79ZM682.28,306l15.22,8.78-37.24,64.52L645,370.47Zm-11.8-.44,7.55-2,3.61,2.09L644.4,370.1,640.79,368l-2-7.54Z" transform="translate(367.92 54.63)"/><path class="cls-3" d="M1027.42-9.25,998.41,41l-7.55,2-3.51-2,29-50.23Zm-11.92,0L986.71,40.61l-15.32-8.84,23.68-41Zm-21.28,0L970.75,31.4l-15.22-8.79,18.4-31.86Zm-21.14,0L954.89,22.24l-15.21-8.78L952.79-9.25Zm-21.15,0L939,13.09,935.42,11l-2-7.55,7.34-12.7Z" transform="translate(367.92 54.63)"/><path class="cls-3" d="M986.56,42.36l3.51,2,2,7.54-31.72,55-7.55,2-3.51-2Zm-16-9.22L985.92,42,948.67,106.5l-15.32-8.84ZM954.74,24,970,32.78,932.71,97.29,917.49,88.5Zm-15.86-9.16,15.22,8.79L916.85,88.13l-15.22-8.78Zm-11.8-.43,7.55-2,3.61,2.08L901,79l-3.62-2.09-2-7.55Z" transform="translate(367.92 54.63)"/><path class="cls-3" d="M948.52,108.25l3.51,2,2,7.54-31.72,55-7.55,2-3.51-2Zm-16-9.22,15.33,8.85-37.25,64.51-15.32-8.84ZM916.7,89.88l15.21,8.78-37.24,64.52-15.22-8.79Zm-15.86-9.16,15.22,8.79L878.81,154l-15.22-8.78ZM889,80.29l7.55-2,3.61,2.08L863,144.87l-3.61-2.09-2-7.55Z" transform="translate(367.92 54.63)"/><path class="cls-3" d="M910.47,174.14l3.51,2,2,7.54-31.73,54.95-7.54,2-3.51-2Zm-16-9.22,15.33,8.85-37.25,64.51-15.33-8.84Zm-15.86-9.15,15.22,8.78-37.24,64.52-15.22-8.79Zm-15.85-9.16L878,155.4l-37.24,64.51-15.22-8.78Zm-11.8-.43,7.54-2,3.62,2.08-37.25,64.52-3.61-2.09-2-7.55Z" transform="translate(367.92 54.63)"/><path class="cls-3" d="M872.43,240l3.51,2,2,7.54-31.72,55-7.54,2-3.51-2Zm-16-9.22,15.32,8.85-37.24,64.51-15.33-8.84Zm-15.86-9.15,15.22,8.79L818.58,295l-15.21-8.79Zm-15.86-9.16L840,221.29,802.73,285.8,787.51,277ZM813,212.07l7.54-2,3.62,2.09-37.25,64.51-3.61-2.09-2-7.55Z" transform="translate(367.92 54.63)"/><path class="cls-3" d="M834.39,305.92l3.51,2,2,7.54L808.2,370.44l-7.55,2-3.51-2Zm-16-9.21,15.32,8.84L796.5,370.06l-15.32-8.84Zm-15.86-9.16,15.22,8.79-37.25,64.51-15.22-8.79Zm-15.86-9.15,15.22,8.78-37.25,64.51-15.21-8.78Zm-11.8-.44,7.55-2,3.61,2.09-37.24,64.51-3.62-2.09-2-7.54Z" transform="translate(367.92 54.63)"/><path class="cls-3" d="M796.35,371.81l3.51,2,2,7.55-31.72,54.94-7.55,2-3.51-2Zm-16-9.21,15.32,8.84L758.46,436l-15.32-8.85Zm-15.86-9.16,15.22,8.79L742.5,426.74,727.28,418Zm-15.86-9.15,15.22,8.78-37.25,64.51-15.21-8.78Zm-11.8-.44,7.55-2,3.61,2.09-37.24,64.51-3.62-2.09-2-7.54Z" transform="translate(367.92 54.63)"/><path class="cls-3" d="M1115.93-9.25l-13.09,22.67-7.55,2-3.51-2,13.09-22.67Zm-11.91,0-12.88,22.3L1075.82,4.2l7.77-13.45Zm-21.28,0-7.56,13.08L1060-4.95l2.49-4.3Zm-21.15,0-2.27,3.93-6.81-3.93Z" transform="translate(367.92 54.63)"/><path class="cls-3" d="M1091,14.8l3.51,2,2,7.55L1064.8,79.31l-7.55,2-3.51-2Zm-16-9.22,15.33,8.85L1053.1,78.94l-15.32-8.85Zm-15.85-9.15,15.21,8.78-37.24,64.51-15.22-8.78Zm-9.84-5.68,9.2,5.31-37.25,64.51-15.22-8.79,35.24-61Zm-8.88,0-35,60.66-3.61-2.08-2-7.55,29.46-51Z" transform="translate(367.92 54.63)"/><path class="cls-3" d="M1052.94,80.69l3.51,2,2,7.54-31.73,55-7.54,2-3.51-2Zm-16-9.22,15.33,8.85-37.25,64.51L999.74,136Zm-15.86-9.15,15.22,8.78L999.1,135.62l-15.22-8.79Zm-15.85-9.16L1020.48,62l-37.24,64.51L968,117.67Zm-11.8-.43,7.54-2,3.62,2.08-37.25,64.52-3.61-2.09-2-7.55Z" transform="translate(367.92 54.63)"/><path class="cls-3" d="M1014.9,146.58l3.51,2,2,7.54L988.71,211.1l-7.54,2-3.51-2Zm-16-9.22,15.32,8.85L977,210.72l-15.33-8.85Zm-15.86-9.15L998.3,137l-37.25,64.52-15.21-8.79Zm-15.85-9.16,15.21,8.79L945.2,192.35,930,183.56Zm-11.8-.43,7.54-2,3.62,2.08L929.34,183.2l-3.61-2.09-2-7.55Z" transform="translate(367.92 54.63)"/><path class="cls-3" d="M976.86,212.47l3.51,2,2,7.54-31.72,55-7.55,2-3.5-2Zm-16-9.22,15.32,8.85L939,276.61l-15.33-8.84ZM945,194.1l15.22,8.78L923,267.4l-15.22-8.79Zm-15.86-9.16,15.22,8.79-37.24,64.51-15.22-8.78Zm-11.8-.43,7.55-2,3.61,2.08L891.3,249.09,887.68,247l-2-7.55Z" transform="translate(367.92 54.63)"/><path class="cls-3" d="M938.82,278.36l3.51,2,2,7.54-31.72,54.95-7.55,2-3.51-2Zm-16-9.22L938.18,278,900.93,342.5l-15.32-8.84ZM907,260l15.22,8.78L885,333.29l-15.22-8.79Zm-15.86-9.16,15.22,8.79-37.25,64.51-15.21-8.78Zm-11.8-.43,7.55-2,3.61,2.08L853.26,315l-3.62-2.09-2-7.55Z" transform="translate(367.92 54.63)"/><path class="cls-3" d="M900.78,344.25l3.51,2,2,7.54-31.72,54.95-7.55,2-3.51-2Zm-16-9.22,15.33,8.85-37.25,64.51-15.32-8.84ZM869,325.88l15.22,8.78-37.25,64.52-15.22-8.79Zm-15.86-9.16,15.22,8.79L831.07,390l-15.22-8.78Zm-11.8-.43,7.55-2,3.61,2.08-37.25,64.52-3.61-2.09-2-7.55Z" transform="translate(367.92 54.63)"/><path class="cls-3" d="M862.74,410.14l3.51,2,2,7.54-31.72,55-7.55,2-3.51-2Zm-16-9.22,15.33,8.85-37.25,64.51-15.32-8.84Zm-15.85-9.15,15.21,8.79-37.24,64.51-15.22-8.79Zm-15.86-9.16,15.22,8.79L793,455.91l-15.22-8.78Zm-11.8-.43,7.55-2,3.61,2.09-37.25,64.51-3.61-2.09-2-7.55Z" transform="translate(367.92 54.63)"/><path class="cls-3" d="M1169.09,51.79l-7.41,2-3.51-2,10.92-18.92Zm0-20.44-11.56,20-15.32-8.85L1169.09-4Zm0-36.86-27.52,47.67-15.22-8.78L1151-9.25h18.13Zm-19-3.74L1125.71,33l-15.22-8.79,19.33-33.47Zm-21.14,0-19.12,33.1-3.61-2.08-2-7.55,13.55-23.47Z" transform="translate(367.92 54.63)"/><path class="cls-3" d="M1157.37,53.13l3.51,2,2,7.55-31.73,54.94-7.54,2-3.51-2Zm-16-9.22,15.32,8.85-37.24,64.51-15.33-8.85Zm-15.86-9.15,15.22,8.78-37.24,64.51-15.22-8.78ZM1109.7,25.6l15.21,8.79L1087.67,98.9l-15.22-8.79Zm-11.8-.43,7.54-2,3.62,2.09-37.25,64.51-3.61-2.08-2-7.55Z" transform="translate(367.92 54.63)"/><path class="cls-3" d="M1119.33,119l3.51,2,2,7.55-31.72,54.94-7.54,2-3.51-2Zm-16-9.22,15.32,8.85-37.24,64.51-15.33-8.85Zm-15.86-9.15,15.22,8.78-37.25,64.51-15.21-8.78Zm-15.86-9.16,15.22,8.79-37.24,64.51L1034.41,156Zm-11.79-.43,7.54-2,3.62,2.08-37.25,64.51-3.61-2.08-2-7.55Z" transform="translate(367.92 54.63)"/><path class="cls-3" d="M1081.29,184.91l3.51,2,2,7.55-31.72,54.94-7.55,2-3.51-2Zm-16-9.22,15.32,8.85-37.25,64.51-15.32-8.85Zm-15.86-9.15,15.22,8.78-37.25,64.51-15.22-8.78Zm-15.86-9.16,15.22,8.79-37.25,64.51-15.21-8.79Zm-11.8-.43,7.55-2L1033,157l-37.24,64.51-3.62-2.08-2-7.55Z" transform="translate(367.92 54.63)"/><path class="cls-3" d="M1043.25,250.8l3.51,2,2,7.55-31.72,54.94-7.55,2-3.51-2Zm-16-9.22,15.32,8.85-37.25,64.51L990,306.09Zm-15.86-9.15,15.22,8.78L989.4,305.73l-15.22-8.79Zm-15.86-9.16,15.22,8.79-37.25,64.51-15.22-8.79Zm-11.8-.43,7.55-2,3.61,2.08-37.24,64.51-3.62-2.08-2-7.55Z" transform="translate(367.92 54.63)"/><path class="cls-3" d="M1005.21,316.69l3.51,2,2,7.55L979,381.2l-7.55,2-3.51-2Zm-16-9.22,15.33,8.85-37.25,64.51L952,372Zm-15.85-9.15,15.21,8.78-37.24,64.51-15.22-8.78Zm-15.86-9.16L972.75,298,935.5,362.46l-15.22-8.79Zm-11.8-.43,7.55-2,3.61,2.08-37.25,64.52L916,351.22l-2-7.55Z" transform="translate(367.92 54.63)"/><path class="cls-3" d="M967.16,382.58l3.52,2,2,7.54L941,447.1l-7.54,2-3.51-2Zm-16-9.22,15.33,8.85-37.25,64.51L914,437.87Zm-15.86-9.15L950.56,373l-37.24,64.52-15.22-8.79Zm-15.85-9.16,15.22,8.79-37.25,64.51-15.22-8.79Zm-11.8-.43,7.54-2,3.62,2.08L881.6,419.2,878,417.11l-2-7.55Z" transform="translate(367.92 54.63)"/><path class="cls-3" d="M929.12,448.47l3.51,2,2,7.54L902.93,513l-7.54,2-3.51-2Zm-16-9.22,15.32,8.85-37.24,64.51-15.33-8.84ZM897.3,430.1l15.22,8.78L875.27,503.4l-15.21-8.79Zm-15.85-9.16,15.21,8.79-37.24,64.51-15.22-8.79Zm-11.8-.43,7.54-2,3.62,2.08-37.25,64.52L840,483l-2-7.55Z" transform="translate(367.92 54.63)"/><path class="cls-3" d="M1169.09,145.91l-14.4-8.31,14.4-24.94Zm0-34.73-15,26-15.22-8.79L1169.09,76Zm-4.81-47.68,4.81-1.29V74.56l-30.89,53.51-3.62-2.08-2-7.55Z" transform="translate(367.92 54.63)"/><path class="cls-3" d="M1169.09,205.3l-9.56,16.56-7.55,2-3.51-2,20.62-35.72Zm0-20.63-21.26,36.82-15.32-8.85,36.58-63.36ZM1153.9,139l15.19,8.78v.05l-37.22,64.47-15.22-8.78ZM1138,129.82l15.22,8.79L1116,203.12l-15.21-8.79Zm-11.8-.43,7.55-2,3.61,2.09L1100.16,194l-3.62-2.08-2-7.55Z" transform="translate(367.92 54.63)"/><path class="cls-3" d="M1147.68,223.24l3.51,2,2,7.55-31.72,54.94-7.55,2-3.51-2Zm-16-9.22,15.33,8.85-37.25,64.51-15.32-8.85Zm-15.85-9.15,15.21,8.78-37.24,64.51-15.22-8.78ZM1100,195.71l15.22,8.79L1078,269l-15.22-8.79Zm-11.8-.43,7.55-2,3.61,2.09-37.24,64.51-3.62-2.08-2-7.55Z" transform="translate(367.92 54.63)"/><path class="cls-3" d="M1109.64,289.13l3.51,2,2,7.55-31.72,54.94-7.55,2-3.51-2Zm-16-9.22,15.33,8.85-37.25,64.51-15.32-8.85Zm-15.85-9.15,15.21,8.78-37.24,64.51-15.22-8.78ZM1062,261.6l15.22,8.79-37.25,64.51-15.22-8.79Zm-11.8-.43,7.54-2,3.62,2.09-37.25,64.51-3.61-2.08-2-7.55Z" transform="translate(367.92 54.63)"/><path class="cls-3" d="M1071.59,355l3.51,2,2,7.55-31.73,54.94-7.54,2-3.51-2Zm-16-9.22,15.32,8.85-37.24,64.51-15.33-8.85Zm-15.86-9.15,15.22,8.78-37.24,64.51-15.22-8.78Zm-15.85-9.16,15.21,8.79-37.24,64.51L986.67,392Zm-11.8-.43,7.54-2,3.62,2.09L986,391.63l-3.61-2.08-2-7.55Z" transform="translate(367.92 54.63)"/><path class="cls-3" d="M1033.55,420.91l3.51,2,2,7.55-31.72,54.94-7.54,2-3.51-2Zm-16-9.22,15.32,8.85-37.24,64.51-15.33-8.85Zm-15.86-9.15,15.22,8.78L979.7,475.83l-15.21-8.78Zm-15.86-9.16,15.22,8.79-37.24,64.51-15.22-8.79ZM974.08,393l7.54-2,3.62,2.08L948,457.52l-3.62-2.08-2-7.55Z" transform="translate(367.92 54.63)"/><path class="cls-3" d="M995.51,486.8l3.51,2,2,7.55-31.72,54.94-7.55,2-3.51-2Zm-16-9.22,15.32,8.85-37.25,64.51-15.32-8.85Zm-15.86-9.15,15.22,8.78-37.25,64.51-15.22-8.78Zm-15.86-9.16,15.22,8.79L925.8,532.57l-15.21-8.79Zm-11.8-.43,7.55-2,3.61,2.08L910,523.41l-3.62-2.08-2-7.55Z" transform="translate(367.92 54.63)"/><path class="cls-3" d="M1169.09,233.76l-1.91-1.1,1.91-3.31Zm0-5.88-2.55,4.41-3.61-2.09-2-7.54,8.18-14.18Z" transform="translate(367.92 54.63)"/><path class="cls-3" d="M1169.09,321.62l-8.24-4.76,8.24-14.27Zm0-20.5-8.87,15.37L1145,307.71,1169.09,266Zm-2.7-67.08,2.7,1.56v28.9l-24.73,42.84-15.22-8.79Zm-11.8-.44,7.54-2,3.62,2.09-37.25,64.51-3.61-2.09-2-7.54Z" transform="translate(367.92 54.63)"/><path class="cls-3" d="M1169.09,358.61,1149.83,392l-7.54,2-3.51-2,30.31-52.51Zm-9-40.37,9,5.21V338l-30.95,53.62-15.33-8.85Zm-15.86-9.16,15.22,8.79-37.25,64.51L1107,373.6Zm-15.85-9.15,15.21,8.78-37.24,64.52-15.22-8.79Zm-11.8-.43,7.54-2,3.62,2.09-37.25,64.51-3.61-2.08-2-7.55Z" transform="translate(367.92 54.63)"/><path class="cls-3" d="M1138,393.35l3.51,2,2,7.55-31.72,54.94-7.55,2-3.51-2Zm-16-9.22,15.32,8.85-37.24,64.51-15.33-8.85ZM1106.16,375l15.22,8.79-37.25,64.51-15.22-8.78Zm-15.86-9.15,15.22,8.78-37.25,64.52-15.21-8.79Zm-11.8-.43,7.55-2,3.61,2.09L1052.42,430l-3.62-2.08-2-7.55Z" transform="translate(367.92 54.63)"/><path class="cls-3" d="M1099.94,459.24l3.51,2,2,7.55-31.72,54.94-7.55,2-3.51-2ZM1084,450l15.32,8.85-37.25,64.51-15.32-8.85Zm-15.86-9.16,15.22,8.79-37.25,64.51-15.22-8.78Zm-15.86-9.15,15.22,8.79L1030.23,505,1015,496.22Zm-11.8-.43,7.55-2,3.61,2.09-37.24,64.51-3.62-2.08-2-7.55Z" transform="translate(367.92 54.63)"/><path class="cls-3" d="M1061.9,525.13l3.51,2,2,7.55-31.72,54.94-7.55,2-3.51-2Zm-16-9.22,15.33,8.85L1024,589.27l-15.32-8.85Zm-15.85-9.15,15.21,8.78-37.24,64.51-15.22-8.78Zm-15.86-9.16,15.22,8.79L992.19,570.9,977,562.11Zm-11.8-.43,7.55-2,3.61,2.09-37.25,64.51-3.61-2.08-2-7.55Z" transform="translate(367.92 54.63)"/><path class="cls-3" d="M1169.09,409.47l-11.6-6.7,11.6-20.1Zm0-28.28-12.24,21.21-3.62-2.09-2-7.54,17.88-31Z" transform="translate(367.92 54.63)"/><path class="cls-3" d="M1169.09,497.32l-2-1.13,2-3.42Zm0-6-2.61,4.52L1151.16,487l17.93-31.06Zm0-36.87-18.57,32.17-15.22-8.78,33.79-58.53Zm-12.4-50.28,12.4,7.16v6.5l-34.43,59.64-15.22-8.79Zm-11.8-.44,7.55-2,3.61,2.09-37.24,64.51-3.62-2.09-2-7.54Z" transform="translate(367.92 54.63)"/><path class="cls-3" d="M1166.33,497.56l2.76,1.6v12.77l-28.95,50.15-7.55,2-3.51-2Zm-16-9.21,15.33,8.85-37.25,64.51-15.32-8.85Zm-15.85-9.16,15.21,8.79-37.24,64.51-15.22-8.78ZM1118.65,470l15.22,8.78-37.25,64.52-15.22-8.79Zm-11.8-.44,7.55-2,3.61,2.09-37.25,64.51-3.61-2.08-2-7.55Z" transform="translate(367.92 54.63)"/><path class="cls-3" d="M1128.28,563.46l3.51,2,2,7.55L1102.09,628l-7.54,2-3.51-2Zm-16-9.22,15.32,8.85L1090.4,627.6l-15.33-8.85Zm-15.86-9.16,15.22,8.79-37.24,64.51-15.22-8.78Zm-15.85-9.15,15.21,8.78-37.24,64.52-15.22-8.79Zm-11.8-.43,7.54-2,3.62,2.09-37.25,64.51-3.61-2.08-2-7.55Z" transform="translate(367.92 54.63)"/><path class="cls-3" d="M1169.09,585.18l-5.44-3.15,5.44-9.43Zm0-14L1163,581.67l-15.22-8.79,21.3-36.9Zm0-36.63-21.94,38-3.61-2.09-2-7.54,27.58-47.77Z" transform="translate(367.92 54.63)"/><path class="cls-3" d="M1169.09,665.24l-.61,1.06-7.54,2-3.52-2,11.67-20.21Zm0-20.63-12.3,21.32-15.33-8.85,27.63-47.86Zm-6.24-61.2,6.24,3.61v20.73l-28.27,49-15.22-8.79ZM1147,574.26l15.22,8.78L1125,647.56l-15.22-8.79Zm-11.8-.44,7.55-2,3.61,2.09-37.24,64.51-3.62-2.09-2-7.54Z" transform="translate(367.92 54.63)"/><path class="cls-3" d="M27.62,16.22l3.51,2,2,7.55L1.43,80.74l-7.55,2-3.51-2ZM11.65,7,27,15.85-10.27,80.37l-15.32-8.85ZM-4.2-2.15,11,6.64-26.23,71.15l-15.22-8.79Zm-12.31-7.1L-4.84-2.52-42.09,62l-15.22-8.79L-21.24-9.25Zm-5.59,0L-57.95,52.84l-3.61-2.09-2-7.54L-33.29-9.25Z" transform="translate(367.92 54.63)"/><path class="cls-3" d="M-10.42,82.11l3.51,2,2,7.55-31.72,54.94-7.55,2-3.51-2Zm-16-9.21,15.33,8.85-37.25,64.51-15.32-8.85Zm-15.85-9.16L-27,72.53-64.27,137l-15.22-8.78ZM-58.1,54.59l15.22,8.78-37.25,64.52-15.22-8.79Zm-11.8-.44,7.55-2,3.61,2.09L-96,118.73l-3.61-2.09-2-7.54Z" transform="translate(367.92 54.63)"/><path class="cls-3" d="M-48.47,148l3.51,2,2,7.55-31.73,54.94-7.54,2-3.51-2Zm-16-9.21,15.32,8.85-37.24,64.51-15.33-8.85Zm-15.86-9.16,15.22,8.79-37.24,64.51-15.22-8.78Zm-15.85-9.15,15.21,8.78-37.24,64.52L-133.39,185Zm-11.8-.43,7.54-2,3.62,2.09L-134,184.62l-3.61-2.09-2-7.54Z" transform="translate(367.92 54.63)"/><path class="cls-3" d="M-86.51,213.9l3.51,2,2,7.55-31.72,54.94-7.54,2-3.51-2Zm-16-9.22,15.32,8.85L-124.39,278l-15.33-8.85Zm-15.86-9.16,15.22,8.79-37.25,64.51L-155.57,260Zm-15.86-9.15,15.22,8.78-37.24,64.52-15.22-8.79Zm-11.79-.44,7.54-2,3.61,2.09-37.24,64.51-3.61-2.08-2-7.55Z" transform="translate(367.92 54.63)"/><path class="cls-3" d="M-124.55,279.79l3.51,2,2,7.55-31.72,54.94-7.55,2-3.51-2Zm-16-9.22,15.32,8.85-37.25,64.51-15.32-8.85Zm-15.86-9.16,15.22,8.79-37.25,64.51-15.22-8.78Zm-15.86-9.15,15.22,8.79-37.25,64.51-15.21-8.79Zm-11.8-.43,7.55-2,3.61,2.09-37.24,64.51-3.62-2.08-2-7.55Z" transform="translate(367.92 54.63)"/><path class="cls-3" d="M-162.59,345.68l3.51,2,2,7.55-31.72,54.94-7.55,2-3.51-2Zm-16-9.22,15.33,8.85-37.25,64.51L-215.8,401Zm-15.85-9.16,15.22,8.79-37.25,64.51-15.22-8.78Zm-15.86-9.15,15.22,8.79-37.25,64.51-15.22-8.79Zm-11.8-.43,7.55-2,3.61,2.09-37.24,64.51-3.62-2.08-2-7.55Z" transform="translate(367.92 54.63)"/><path class="cls-3" d="M-200.63,411.57l3.51,2,2,7.55-31.72,54.94-7.55,2-3.51-2Zm-16-9.22,15.33,8.85-37.25,64.51-15.32-8.85Zm-15.85-9.16,15.21,8.79-37.24,64.51-15.22-8.78ZM-248.31,384l15.22,8.79-37.25,64.51-15.22-8.79Zm-11.8-.43,7.55-2,3.61,2.09-37.25,64.51-3.61-2.08-2-7.55Z" transform="translate(367.92 54.63)"/><path class="cls-3" d="M-238.68,477.46l3.51,2,2,7.55L-264.87,542l-7.54,2-3.51-2Zm-16-9.22,15.33,8.85-37.25,64.51-15.33-8.85Zm-15.86-9.15,15.22,8.78-37.24,64.51-15.22-8.78Zm-15.85-9.16,15.22,8.79-37.25,64.51-15.22-8.79Zm-11.8-.43,7.54-2,3.62,2.09-37.25,64.51-3.61-2.08-2-7.55Z" transform="translate(367.92 54.63)"/><path class="cls-3" d="M-276.72,543.35l3.51,2,2,7.55-31.72,54.94-7.54,2-3.51-2Zm-16-9.22,15.32,8.85-37.24,64.51-15.33-8.85ZM-308.54,525l15.22,8.78-37.25,64.51-15.21-8.78Zm-15.85-9.16,15.21,8.79-37.24,64.51-15.22-8.79Zm-11.8-.43,7.54-2,3.62,2.08L-362.28,580l-3.61-2.08-2-7.55Z" transform="translate(367.92 54.63)"/><path class="cls-3" d="M94,54.55l3.51,2,2,7.55L67.82,119.07l-7.55,2-3.51-2ZM78,45.34l15.32,8.84L56.12,118.7,40.8,109.85ZM62.18,36.18,77.4,45,40.16,109.48l-15.22-8.79ZM46.33,27l15.22,8.78L24.3,100.32,9.08,91.54Zm-11.8-.44,7.54-2,3.62,2.09L8.44,91.17,4.83,89.08l-2-7.54Z" transform="translate(367.92 54.63)"/><path class="cls-3" d="M56,120.44l3.51,2,2,7.55L29.77,185l-7.54,2-3.51-2Zm-16-9.21,15.32,8.84L18.08,184.59,2.75,175.74Zm-15.86-9.16,15.22,8.79L2.11,175.37l-15.21-8.79ZM8.29,92.92,23.5,101.7l-37.24,64.51L-29,157.43Zm-11.8-.44,7.54-2,3.62,2.09L-29.6,157.06-33.21,155l-2-7.54Z" transform="translate(367.92 54.63)"/><path class="cls-3" d="M17.92,186.33l3.51,2,2,7.55L-8.27,250.85l-7.54,2-3.52-2ZM2,177.12,17.28,186-20,250.48l-15.33-8.85ZM-13.9,168l15.22,8.79-37.25,64.51-15.22-8.79Zm-15.86-9.15,15.22,8.78-37.24,64.52L-67,223.32Zm-11.8-.44,7.55-2,3.61,2.09L-67.64,223l-3.62-2.09-2-7.54Z" transform="translate(367.92 54.63)"/><path class="cls-3" d="M-20.12,252.22l3.51,2,2,7.55-31.72,54.94-7.55,2-3.51-2Zm-16-9.21,15.32,8.84L-58,316.37l-15.32-8.85Zm-15.86-9.16,15.22,8.79L-74,307.15l-15.22-8.79ZM-67.8,224.7l15.22,8.78L-89.83,298-105,289.21Zm-11.8-.44,7.55-2,3.61,2.09-37.24,64.51-3.62-2.09-2-7.54Z" transform="translate(367.92 54.63)"/><path class="cls-3" d="M-58.16,318.11l3.51,2,2,7.55-31.72,54.94-7.55,2-3.51-2Zm-16-9.21,15.33,8.85L-96,382.26l-15.32-8.85ZM-90,299.74l15.21,8.79L-112,373l-15.22-8.79Zm-15.86-9.15,15.22,8.78-37.25,64.52-15.22-8.79Zm-11.8-.44,7.55-2,3.61,2.09-37.25,64.51-3.61-2.09-2-7.54Z" transform="translate(367.92 54.63)"/><path class="cls-3" d="M-96.2,384l3.51,2,2,7.55-31.72,54.94-7.55,2-3.51-2Zm-16-9.21,15.33,8.85-37.25,64.51-15.32-8.85ZM-128,365.63l15.21,8.79L-150,438.93l-15.22-8.78Zm-15.86-9.15,15.22,8.78-37.25,64.52L-181.13,421Zm-11.8-.44,7.55-2,3.61,2.09-37.25,64.51-3.61-2.08-2-7.55Z" transform="translate(367.92 54.63)"/><path class="cls-3" d="M-134.25,449.89l3.51,2,2,7.55-31.73,54.94-7.54,2-3.51-2Zm-16-9.21,15.32,8.85L-172.13,514l-15.33-8.85Zm-15.86-9.16,15.22,8.79-37.25,64.51L-203.31,496Zm-15.85-9.15,15.21,8.78-37.24,64.52-15.22-8.79Zm-11.8-.43,7.54-2,3.62,2.09-37.25,64.51-3.61-2.08-2-7.55Z" transform="translate(367.92 54.63)"/><path class="cls-3" d="M-172.29,515.79l3.51,2,2,7.55-31.72,54.94-7.54,2-3.51-2Zm-16-9.22,15.32,8.85-37.24,64.51-15.33-8.85Zm-15.86-9.16,15.22,8.79-37.25,64.51-15.21-8.78ZM-220,488.26l15.22,8.78L-242,561.56l-15.22-8.79Zm-11.79-.43,7.54-2,3.62,2.09-37.25,64.51-3.61-2.08-2-7.55Z" transform="translate(367.92 54.63)"/><path class="cls-3" d="M-210.33,581.68l3.51,2,2,7.55-31.72,54.94-7.55,2-3.51-2Zm-16-9.22,15.32,8.85-37.25,64.51L-263.54,637Zm-15.86-9.16,15.22,8.79-37.25,64.51-15.22-8.78ZM-258,554.15l15.22,8.79L-280,627.45l-15.21-8.79Zm-11.8-.43,7.55-2,3.61,2.09-37.24,64.51-3.62-2.08-2-7.55Z" transform="translate(367.92 54.63)"/><path class="cls-3" d="M160.39,92.88l3.51,2,2,7.54-31.72,55-7.54,2-3.51-2Zm-16-9.22,15.32,8.85L122.51,157l-15.33-8.84Zm-15.86-9.15,15.22,8.79-37.25,64.51L91.33,139Zm-15.86-9.16,15.22,8.79L90.69,138.65l-15.22-8.78Zm-11.8-.43,7.55-2L112.07,65,74.83,129.5l-3.61-2.09-2-7.55Z" transform="translate(367.92 54.63)"/><path class="cls-3" d="M122.35,158.77l3.51,2,2,7.54L96.16,223.29l-7.55,2-3.51-2Zm-16-9.21,15.32,8.84L84.46,222.91l-15.32-8.84ZM90.53,140.4l15.22,8.79L68.5,213.7l-15.22-8.79Zm-15.86-9.15L89.89,140,52.64,204.54l-15.21-8.78Zm-11.8-.44,7.55-2L74,130.88,36.79,195.39l-3.62-2.09-2-7.54Z" transform="translate(367.92 54.63)"/><path class="cls-3" d="M84.31,224.66l3.51,2,2,7.55L58.12,289.18l-7.55,2-3.51-2Zm-16-9.21,15.33,8.84L46.42,288.81,31.1,280Zm-15.85-9.16,15.22,8.79L30.46,279.59,15.24,270.8Zm-15.86-9.15,15.22,8.78L14.6,270.43-.62,261.65Zm-11.8-.44,7.55-2L36,196.77-1.25,261.28l-3.62-2.09-2-7.54Z" transform="translate(367.92 54.63)"/><path class="cls-3" d="M46.27,290.55l3.51,2,2,7.55L20.08,355.07l-7.55,2-3.51-2Zm-16-9.21,15.33,8.84L8.38,354.7l-15.32-8.85Zm-15.85-9.16L29.66,281-7.58,345.48l-15.22-8.79ZM-1.41,263l15.22,8.78-37.25,64.51-15.22-8.78Zm-11.8-.44,7.55-2L-2,262.66-39.3,327.17l-3.61-2.09-2-7.54Z" transform="translate(367.92 54.63)"/><path class="cls-3" d="M8.22,356.44l3.51,2,2,7.55L-18,421l-7.54,2L-29,421Zm-16-9.21,15.32,8.84-37.24,64.52L-45,411.74Zm-15.86-9.16,15.22,8.79-37.24,64.51-15.22-8.79Zm-15.85-9.15,15.21,8.78-37.24,64.51-15.22-8.78Zm-11.8-.44,7.54-2,3.62,2.09-37.25,64.51L-80.95,391l-2-7.54Z" transform="translate(367.92 54.63)"/><path class="cls-3" d="M-29.82,422.33l3.51,2,2,7.55L-56,486.85l-7.54,2-3.51-2Zm-16-9.21L-30.46,422-67.7,486.48-83,477.63ZM-61.64,404l15.22,8.79-37.25,64.51-15.21-8.79Zm-15.85-9.15,15.21,8.78-37.24,64.52-15.22-8.79Zm-11.8-.44,7.54-2,3.62,2.09L-115.38,459l-3.61-2.09-2-7.54Z" transform="translate(367.92 54.63)"/><path class="cls-3" d="M-67.86,488.22l3.51,2,2,7.55L-94,552.74l-7.55,2-3.51-2Zm-16-9.21,15.32,8.84-37.25,64.52-15.32-8.85Zm-15.86-9.16,15.22,8.79-37.25,64.51-15.22-8.79Zm-15.86-9.15,15.22,8.78L-137.56,534l-15.22-8.79Zm-11.8-.44,7.55-2,3.61,2.09-37.24,64.51-3.62-2.09-2-7.54Z" transform="translate(367.92 54.63)"/><path class="cls-3" d="M-105.9,554.11l3.51,2,2,7.55-31.72,54.94-7.55,2-3.51-2Zm-16-9.21,15.32,8.84-37.25,64.52-15.32-8.85Zm-15.86-9.16,15.22,8.79L-159.75,609-175,600.25Zm-15.86-9.15,15.22,8.78-37.25,64.52-15.21-8.79Zm-11.8-.44,7.55-2,3.61,2.09-37.24,64.51-3.62-2.09-2-7.54Z" transform="translate(367.92 54.63)"/><path class="cls-3" d="M-143.94,620l3.51,2,2,7.55L-164,673.91h-11.05Zm-16-9.21,15.33,8.85-31.34,54.27h-20.43Zm-15.85-9.16,15.21,8.79-36.65,63.49h-2.36L-213,666.14Zm-15.86-9.15,15.22,8.78-37.25,64.52L-228.87,657Zm-11.8-.44,7.55-2,3.61,2.09-37.25,64.51-3.61-2.09-2-7.54Z" transform="translate(367.92 54.63)"/><path class="cls-3" d="M226.78,131.21l3.51,2,2,7.54-31.72,54.95-7.55,2-3.51-2Zm-16-9.22,15.32,8.85-37.25,64.51-15.32-8.84ZM195,112.84l15.22,8.78-37.25,64.52-15.22-8.79Zm-15.86-9.16,15.22,8.79L157.07,177l-15.21-8.78Zm-11.8-.43,7.55-2,3.61,2.08-37.24,64.52-3.62-2.09-2-7.55Z" transform="translate(367.92 54.63)"/><path class="cls-3" d="M188.74,197.1l3.51,2,2,7.54-31.72,55-7.55,2-3.51-2Zm-16-9.22,15.33,8.85-37.25,64.51-15.32-8.84Zm-15.85-9.15,15.21,8.79L134.89,252l-15.22-8.79Zm-15.86-9.16,15.22,8.79L119,242.87l-15.22-8.78Zm-11.8-.43,7.55-2,3.61,2.09-37.25,64.51-3.61-2.09-2-7.55Z" transform="translate(367.92 54.63)"/><path class="cls-3" d="M150.7,263l3.51,2,2,7.54-31.72,54.95-7.55,2-3.51-2Zm-16-9.22,15.33,8.85-37.25,64.51-15.32-8.84Zm-15.86-9.15,15.22,8.79L96.85,317.92l-15.22-8.79ZM103,235.46l15.22,8.79L81,308.76,65.77,300ZM91.22,235l7.54-2,3.62,2.08L65.13,299.61l-3.61-2.09-2-7.55Z" transform="translate(367.92 54.63)"/><path class="cls-3" d="M112.65,328.88l3.51,2,2,7.54L86.46,393.4l-7.54,2-3.51-2Zm-16-9.22L112,328.51,74.77,393l-15.33-8.84Zm-15.86-9.15,15.22,8.79L58.8,383.81,43.59,375ZM65,301.35l15.21,8.79L43,374.65l-15.22-8.78Zm-11.8-.43,7.54-2L64.34,301,27.09,365.5l-3.61-2.09-2-7.55Z" transform="translate(367.92 54.63)"/><path class="cls-3" d="M74.61,394.77l3.51,2,2,7.54-31.72,55-7.54,2-3.51-2Zm-16-9.21L74,394.4,36.73,458.91,21.4,450.07ZM42.79,376.4,58,385.19,20.76,449.7,5.55,440.91Zm-15.86-9.15L42.15,376,4.91,440.54l-15.22-8.78Zm-11.8-.44,7.55-2,3.61,2.09-37.24,64.51-3.61-2.09-2-7.55Z" transform="translate(367.92 54.63)"/><path class="cls-3" d="M36.57,460.66l3.51,2,2,7.54L10.38,525.18l-7.55,2-3.51-2Zm-16-9.21,15.32,8.84L-1.32,524.8-16.64,516ZM4.75,442.29,20,451.08l-37.25,64.51L-32.5,506.8Zm-15.86-9.15,15.22,8.78-37.25,64.51-15.21-8.78Zm-11.8-.44,7.55-2,3.61,2.09L-49,497.28l-3.62-2.09-2-7.54Z" transform="translate(367.92 54.63)"/><path class="cls-3" d="M-1.47,526.55l3.51,2,2,7.55-31.72,54.94-7.55,2-3.51-2Zm-16-9.21,15.33,8.84L-39.36,590.7l-15.32-8.85Zm-15.85-9.16L-18.07,517l-37.25,64.51-15.22-8.79ZM-49.15,499l15.22,8.78-37.25,64.51-15.22-8.78Zm-11.8-.44,7.55-2,3.61,2.09L-87,563.17l-3.62-2.09-2-7.54Z" transform="translate(367.92 54.63)"/><path class="cls-3" d="M-39.51,592.44l3.51,2,2,7.55L-65.7,657l-7.55,2-3.51-2Zm-16-9.21,15.33,8.84L-77.4,656.59l-15.32-8.85Zm-15.85-9.16,15.21,8.79-37.24,64.51-15.22-8.79Zm-15.86-9.15L-72,573.7l-37.25,64.51-15.22-8.78Zm-11.8-.44,7.55-2,3.61,2.09-37.25,64.51-3.61-2.09-2-7.54Z" transform="translate(367.92 54.63)"/><path class="cls-3" d="M-77.56,658.33l3.51,2,2,7.55-3.47,6H-86.55Zm-16-9.21L-78.2,658l-9.2,15.95h-20.43ZM-109.38,640l15.22,8.79-14.52,25.16H-129Zm-15.85-9.15,15.21,8.78-19.81,34.32h-20.29Zm-11.8-.44,7.54-2,3.62,2.09L-151,673.91h-11.2Z" transform="translate(367.92 54.63)"/><path class="cls-3" d="M293.17,169.54l3.51,2,2,7.55L267,234.05l-7.55,2-3.51-2Zm-16-9.22,15.33,8.85-37.25,64.51L240,224.83Zm-15.85-9.15L276.56,160l-37.24,64.51-15.22-8.78ZM245.49,142l15.22,8.79-37.25,64.51-15.22-8.79Zm-11.8-.43,7.55-2,3.61,2.08L207.6,206.15,204,204.07l-2-7.55Z" transform="translate(367.92 54.63)"/><path class="cls-3" d="M255.12,235.43l3.51,2,2,7.54L228.93,300l-7.54,2-3.51-2Zm-16-9.22,15.32,8.85-37.24,64.51-15.33-8.85Zm-15.86-9.15,15.22,8.78-37.24,64.52-15.22-8.79Zm-15.85-9.16,15.21,8.79L185.42,281.2l-15.22-8.79Zm-11.8-.43,7.54-2,3.62,2.08-37.25,64.52L166,270l-2-7.55Z" transform="translate(367.92 54.63)"/><path class="cls-3" d="M217.08,301.32l3.51,2,2,7.54-31.72,54.95-7.54,2-3.51-2Zm-16-9.22L216.44,301,179.2,365.46l-15.33-8.85ZM185.26,283l15.22,8.78-37.25,64.52L148,347.46Zm-15.86-9.16,15.22,8.79-37.24,64.51-15.22-8.79Zm-11.79-.43,7.54-2,3.62,2.08-37.25,64.52-3.61-2.09-2-7.55Z" transform="translate(367.92 54.63)"/><path class="cls-3" d="M179,367.21l3.51,2,2,7.54-31.72,55-7.55,2-3.51-2Zm-16-9.22,15.32,8.85-37.25,64.51-15.32-8.84Zm-15.86-9.15,15.22,8.78-37.25,64.52L110,413.35Zm-15.86-9.16,15.22,8.79L109.33,413,94.12,404.2Zm-11.8-.43,7.55-2,3.61,2.08L93.48,403.83l-3.62-2.09-2-7.55Z" transform="translate(367.92 54.63)"/><path class="cls-3" d="M141,433.1l3.51,2,2,7.54-31.72,54.95-7.55,2-3.51-2Zm-16-9.22,15.32,8.85-37.25,64.51L87.79,488.4Zm-15.86-9.15,15.22,8.78L87.15,488l-15.22-8.79Zm-15.86-9.16,15.22,8.79L71.29,478.87l-15.22-8.78Zm-11.8-.43,7.55-2,3.61,2.08L55.44,469.72l-3.62-2.09-2-7.55Z" transform="translate(367.92 54.63)"/><path class="cls-3" d="M103,499l3.51,2,2,7.54L76.77,563.51l-7.55,2-3.51-2Zm-16-9.22,15.33,8.85L65.07,563.13l-15.32-8.84Zm-15.85-9.15,15.21,8.78L49.11,553.92l-15.22-8.79Zm-15.86-9.16,15.22,8.79L33.25,544.76,18,536ZM43.48,471,51,469l3.61,2.08L17.39,535.61l-3.61-2.09-2-7.55Z" transform="translate(367.92 54.63)"/><path class="cls-3" d="M64.91,564.88l3.51,2,2,7.54L38.73,629.4l-7.55,2-3.51-2Zm-16-9.22,15.33,8.85L27,629l-15.32-8.84Zm-15.86-9.15,15.22,8.79L11.07,619.81-4.15,611Zm-15.85-9.16,15.22,8.79L-4.79,610.65-20,601.87Zm-11.8-.43,7.54-2L16.6,537-20.65,601.5l-3.61-2.09-2-7.55Z" transform="translate(367.92 54.63)"/><path class="cls-3" d="M26.87,630.77l3.51,2,2,7.54L13,673.91H2Zm-16-9.22,15.32,8.85L1.12,673.91H-19.32ZM-4.95,612.4l15.22,8.79-30.44,52.72H-40.46Zm-15.85-9.16L-5.59,612l-35.72,61.88H-47.4L-58,667.76Zm-11.8-.43,7.54-2,3.62,2.09-37.25,64.51-3.61-2.09-2-7.54Z" transform="translate(367.92 54.63)"/><path class="cls-3" d="M-58.85,669.13l8.27,4.78h-11Zm-11.8-.43,7.55-2,3.61,2.09-3,5.14h-11.2Z" transform="translate(367.92 54.63)"/><path class="cls-3" d="M359.55,207.87l3.51,2,2,7.55-31.72,54.94-7.54,2-3.51-2Zm-16-9.22,15.32,8.85L321.67,272l-15.33-8.85Zm-15.86-9.15L343,198.28,305.7,262.79,290.49,254Zm-15.85-9.16,15.21,8.79-37.24,64.51-15.22-8.79Zm-11.8-.43,7.54-2,3.62,2.09L274,244.48l-3.61-2.08-2-7.55Z" transform="translate(367.92 54.63)"/><path class="cls-3" d="M321.51,273.76l3.51,2,2,7.55-31.72,54.94-7.55,2-3.51-2Zm-16-9.22,15.32,8.85L283.63,337.9l-15.33-8.85Zm-15.86-9.15,15.22,8.78-37.25,64.51-15.22-8.78Zm-15.86-9.16L289.05,255l-37.24,64.51-15.22-8.79ZM262,245.8l7.55-2,3.61,2.08L236,310.37l-3.62-2.08-2-7.55Z" transform="translate(367.92 54.63)"/><path class="cls-3" d="M283.47,339.65l3.51,2,2,7.55-31.72,54.94-7.55,2-3.51-2Zm-16-9.22,15.32,8.85-37.25,64.51-15.32-8.85Zm-15.86-9.15,15.22,8.78-37.25,64.51-15.22-8.78Zm-15.86-9.16L251,320.91l-37.25,64.51-15.21-8.79Zm-11.8-.43,7.55-2,3.61,2.08-37.24,64.51-3.62-2.08-2-7.55Z" transform="translate(367.92 54.63)"/><path class="cls-3" d="M245.43,405.54l3.51,2,2,7.54-31.72,54.94-7.55,2-3.51-2Zm-16-9.22,15.33,8.85-37.25,64.51-15.32-8.85Zm-15.85-9.15L228.82,396l-37.24,64.52-15.22-8.79ZM197.75,378,213,386.8l-37.25,64.51-15.22-8.79Zm-11.8-.43,7.55-2,3.61,2.08-37.25,64.52-3.61-2.09-2-7.55Z" transform="translate(367.92 54.63)"/><path class="cls-3" d="M207.39,471.43l3.51,2,2,7.55L181.2,535.94l-7.55,2-3.51-2Zm-16-9.22,15.33,8.85L169.5,535.57l-15.32-8.85Zm-15.85-9.15,15.21,8.78-37.24,64.52-15.22-8.79Zm-15.86-9.16,15.22,8.79L137.68,517.2l-15.22-8.79Zm-11.8-.43,7.55-2,3.61,2.08-37.25,64.52L118.21,506l-2-7.55Z" transform="translate(367.92 54.63)"/><path class="cls-3" d="M169.34,537.32l3.51,2,2,7.55-31.73,55-7.54,2-3.51-2Zm-16-9.22L168.7,537l-37.24,64.51-15.33-8.85ZM137.52,519l15.22,8.78L115.5,592.25l-15.22-8.79Zm-15.85-9.16,15.21,8.79L99.64,583.09,84.42,574.3Zm-11.8-.43,7.54-2,3.62,2.08L83.78,573.94l-3.61-2.09-2-7.55Z" transform="translate(367.92 54.63)"/><path class="cls-3" d="M131.3,603.21l3.51,2,2,7.54-31.72,55-7.54,2-3.51-2Zm-16-9.22,15.32,8.85L93.42,667.35l-15.33-8.84Zm-15.86-9.15,15.22,8.78L77.45,658.14l-15.21-8.79Zm-15.86-9.16,15.22,8.79L61.6,649,46.38,640.2Zm-11.8-.43,7.55-2L83,575.31,45.74,639.83l-3.61-2.09-2-7.55Z" transform="translate(367.92 54.63)"/><path class="cls-3" d="M93.26,669.1l3.51,2,.75,2.78h-7Zm-16-9.22,15.32,8.85-3,5.18H69.2Zm-15.86-9.15,15.22,8.78-8.31,14.4H48.06Zm-15.86-9.16,15.22,8.79L47.2,673.91H26.91Zm-11.8-.43,7.55-2,3.61,2.08L26.06,673.91H14.87Z" transform="translate(367.92 54.63)"/><path class="cls-3" d="M426.38,246.45l3.51,2,2,7.54-31.72,55-7.55,2-3.51-2Zm-16-9.22,15.32,8.85-37.25,64.51-15.32-8.85Zm-15.86-9.15,15.22,8.78-37.25,64.52-15.22-8.79Zm-15.86-9.16,15.22,8.79-37.25,64.51-15.21-8.79Zm-11.8-.43,7.55-2,3.61,2.08-37.24,64.52L337.2,281l-2-7.55Z" transform="translate(367.92 54.63)"/><path class="cls-3" d="M388.34,312.34l3.51,2,2,7.54-31.72,54.95-7.55,2-3.51-2Zm-16-9.22L387.7,312l-37.25,64.51-15.32-8.85ZM356.52,294l15.21,8.78-37.24,64.52-15.22-8.79Zm-15.86-9.16,15.22,8.79-37.25,64.51-15.22-8.79Zm-11.8-.43,7.55-2,3.61,2.08L302.77,349l-3.61-2.09-2-7.55Z" transform="translate(367.92 54.63)"/><path class="cls-3" d="M350.29,378.23l3.52,2,2,7.54-31.72,54.95-7.55,2-3.51-2Zm-16-9.22,15.33,8.85-37.25,64.51-15.32-8.84Zm-15.86-9.15,15.22,8.78-37.24,64.52-15.22-8.79Zm-15.85-9.16,15.22,8.79L280.59,424l-15.22-8.78Zm-11.8-.43,7.54-2,3.62,2.08-37.25,64.52-3.61-2.09-2-7.55Z" transform="translate(367.92 54.63)"/><path class="cls-3" d="M312.25,444.12l3.51,2,2,7.54-31.73,54.95-7.54,2-3.51-2Zm-16-9.22,15.32,8.85-37.24,64.51L259,499.42Zm-15.86-9.15,15.22,8.78L258.4,499.05l-15.21-8.79Zm-15.85-9.16,15.21,8.79-37.24,64.51-15.22-8.78Zm-11.8-.43,7.54-2,3.62,2.09-37.25,64.51-3.61-2.09-2-7.55Z" transform="translate(367.92 54.63)"/><path class="cls-3" d="M274.21,510l3.51,2,2,7.54L248,574.53l-7.54,2-3.52-2Zm-16-9.22,15.32,8.85-37.24,64.51L221,565.31Zm-15.86-9.15,15.22,8.78-37.25,64.52-15.22-8.79Zm-15.86-9.16,15.22,8.79-37.24,64.51L189.29,547Zm-11.8-.43,7.55-2,3.62,2.08-37.25,64.52L185,544.54,183,537Z" transform="translate(367.92 54.63)"/><path class="cls-3" d="M236.17,575.9l3.51,2,2,7.54L210,640.42l-7.55,2-3.51-2Zm-16-9.22,15.32,8.85L198.28,640,183,631.2Zm-15.86-9.15,15.22,8.78-37.25,64.52L167.1,622Zm-15.86-9.16,15.22,8.79-37.25,64.51-15.21-8.78Zm-11.8-.43,7.55-2,3.61,2.08-37.24,64.52L147,610.43l-2-7.55Z" transform="translate(367.92 54.63)"/><path class="cls-3" d="M198.13,641.79l3.51,2,2,7.54-13,22.55H179.58Zm-16-9.22,15.33,8.85-18.76,32.49H158.3Zm-15.85-9.15,15.22,8.79-24.08,41.7H137.16Zm-15.86-9.16,15.22,8.79-29.36,50.86H116Zm-11.8-.43,7.55-2,3.61,2.09-34.65,60H108.3l-1.37-5.14Z" transform="translate(367.92 54.63)"/><path class="cls-3" d="M492.77,284.78l3.51,2,2,7.55-31.72,54.94-7.55,2-3.51-2Zm-16-9.22,15.33,8.85-37.25,64.51-15.32-8.85ZM461,266.41l15.21,8.78L438.92,339.7l-15.22-8.78Zm-15.86-9.16L460.31,266l-37.25,64.51-15.22-8.79Zm-11.8-.43,7.55-2,3.61,2.08L407.2,321.39l-3.61-2.08-2-7.55Z" transform="translate(367.92 54.63)"/><path class="cls-3" d="M454.72,350.67l3.51,2,2,7.55-31.73,54.94-7.54,2-3.51-2Zm-16-9.22,15.32,8.85-37.24,64.51L401.51,406ZM422.9,332.3l15.22,8.78-37.25,64.51-15.21-8.78Zm-15.85-9.16,15.21,8.79L385,396.44l-15.22-8.79Zm-11.8-.43,7.54-2,3.62,2.08-37.25,64.51-3.61-2.08-2-7.55Z" transform="translate(367.92 54.63)"/><path class="cls-3" d="M416.68,416.56l3.51,2,2,7.55-31.72,54.94-7.54,2-3.51-2Zm-16-9.22L416,416.19,378.8,480.7l-15.33-8.85Zm-15.86-9.15L400.08,407l-37.25,64.51-15.21-8.78ZM369,389l15.22,8.79L347,462.33l-15.22-8.79Zm-11.79-.43,7.54-2,3.62,2.08-37.25,64.51-3.61-2.08-2-7.55Z" transform="translate(367.92 54.63)"/><path class="cls-3" d="M378.64,482.45l3.51,2,2,7.54-31.72,55-7.55,2-3.51-2Zm-16-9.22L378,482.08l-37.25,64.51-15.32-8.85Zm-15.86-9.15L362,472.86l-37.25,64.52-15.22-8.79ZM331,454.92l15.22,8.79-37.25,64.51-15.21-8.79Zm-11.8-.43,7.55-2,3.61,2.08-37.24,64.52L289.46,517l-2-7.55Z" transform="translate(367.92 54.63)"/><path class="cls-3" d="M340.6,548.34l3.51,2,2,7.54-31.72,55-7.55,2-3.51-2Zm-16-9.22L340,548l-37.25,64.51-15.32-8.85ZM308.78,530,324,538.75l-37.25,64.52-15.22-8.79Zm-15.86-9.16,15.22,8.79-37.25,64.51-15.21-8.79Zm-11.8-.43,7.55-2,3.61,2.08L255,585l-3.62-2.09-2-7.55Z" transform="translate(367.92 54.63)"/><path class="cls-3" d="M302.56,614.23l3.51,2,2,7.54-28.93,50.11H268.1Zm-16-9.22,15.33,8.85-34.67,60H256.94l-7.59-4.38Zm-15.85-9.15L286,604.64l-37.24,64.52-15.22-8.79Zm-15.86-9.16,15.22,8.79L232.85,660l-15.22-8.78Zm-11.8-.43,7.55-2,3.61,2.08L217,650.85l-3.61-2.09-2-7.55Z" transform="translate(367.92 54.63)"/><path class="cls-3" d="M248.55,670.9l5.21,3h-6.94Zm-15.86-9.15,15.22,8.78L246,673.91H225.67Zm-15.85-9.16,15.21,8.79-7.23,12.53H204.53Zm-11.8-.43,7.54-2,3.62,2.08-12.52,21.69h-11.2Z" transform="translate(367.92 54.63)"/><path class="cls-3" d="M559.15,323.11l3.51,2,2,7.55L533,387.62l-7.54,2-3.51-2Zm-16-9.22,15.32,8.85-37.24,64.51-15.33-8.85Zm-15.86-9.16,15.22,8.79L505.3,378l-15.21-8.78Zm-15.85-9.15,15.21,8.79-37.24,64.51-15.22-8.79Zm-11.8-.43,7.54-2,3.62,2.09-37.25,64.51L470,357.64l-2-7.55Z" transform="translate(367.92 54.63)"/><path class="cls-3" d="M521.11,389l3.51,2,2,7.55-31.72,54.94-7.55,2-3.51-2Zm-16-9.22,15.32,8.85-37.24,64.51-15.33-8.85Zm-15.86-9.15,15.22,8.78-37.25,64.51L452,435.14Zm-15.86-9.16,15.22,8.79-37.24,64.51L436.19,426Zm-11.8-.43,7.55-2,3.61,2.09-37.24,64.51-3.62-2.08-2-7.55Z" transform="translate(367.92 54.63)"/><path class="cls-3" d="M483.07,454.89l3.51,2,2,7.55L456.88,519.4l-7.55,2-3.51-2Zm-16-9.22,15.32,8.85L445.18,519l-15.32-8.85Zm-15.86-9.15,15.22,8.78-37.25,64.51L414,501Zm-15.86-9.16,15.22,8.79-37.25,64.51-15.21-8.79Zm-11.8-.43,7.55-2,3.61,2.09L397.51,491.5l-3.62-2.08-2-7.55Z" transform="translate(367.92 54.63)"/><path class="cls-3" d="M445,520.78l3.51,2,2,7.55-31.72,54.94-7.55,2-3.51-2Zm-16-9.22,15.33,8.85-37.25,64.51-15.32-8.85Zm-15.85-9.15,15.21,8.78L391.18,575.7,376,566.92Zm-15.86-9.16L412.57,502l-37.25,64.51-15.22-8.79Zm-11.8-.43,7.55-2,3.61,2.08-37.25,64.51-3.61-2.08-2-7.55Z" transform="translate(367.92 54.63)"/><path class="cls-3" d="M407,586.67l3.51,2,2,7.55L380.8,651.18l-7.55,2-3.51-2Zm-16-9.22,15.33,8.85L369.1,650.81,353.78,642Zm-15.86-9.15,15.22,8.78-37.24,64.51-15.22-8.78Zm-15.85-9.16,15.22,8.79-37.25,64.51-15.22-8.79Zm-11.8-.43,7.55-2,3.61,2.08-37.25,64.51-3.61-2.08-2-7.55Z" transform="translate(367.92 54.63)"/><path class="cls-3" d="M368.94,652.56l3.51,2,2,7.55-6.8,11.78H356.62Zm-16-9.22,15.32,8.85-12.54,21.72H335.33Zm-15.86-9.15L352.34,643l-17.86,30.94H314.19ZM321.27,625l15.21,8.79-23.14,40.09H293.05Zm-11.8-.43,7.54-2,3.62,2.08L292.2,673.91H281Z" transform="translate(367.92 54.63)"/><path class="cls-3" d="M625.54,361.43l3.51,2,2,7.55L599.35,426l-7.55,2-3.51-2Zm-16-9.21,15.32,8.85-37.25,64.51-15.32-8.85Zm-15.86-9.16,15.22,8.79-37.25,64.51-15.22-8.78Zm-15.86-9.15,15.22,8.78-37.25,64.52-15.21-8.79Zm-11.8-.44,7.55-2,3.61,2.09L540,398.05,536.36,396l-2-7.54Z" transform="translate(367.92 54.63)"/><path class="cls-3" d="M587.5,427.33l3.51,2,2,7.55-31.72,54.94-7.55,2-3.51-2Zm-16-9.22L586.86,427l-37.25,64.51-15.32-8.85ZM555.68,409l15.22,8.79-37.25,64.51-15.22-8.78Zm-15.86-9.15L555,408.58,517.79,473.1l-15.22-8.79Zm-11.8-.43,7.55-2,3.61,2.09-37.25,64.51-3.61-2.08-2-7.55Z" transform="translate(367.92 54.63)"/><path class="cls-3" d="M549.46,493.22l3.51,2,2,7.55-31.72,54.94-7.55,2-3.51-2Zm-16-9.22,15.33,8.85-37.25,64.51-15.32-8.85Zm-15.85-9.16,15.21,8.79-37.24,64.51-15.22-8.78Zm-15.86-9.15L517,474.47,479.75,539l-15.22-8.79Zm-11.8-.43,7.55-2,3.61,2.09-37.25,64.51-3.61-2.08-2-7.55Z" transform="translate(367.92 54.63)"/><path class="cls-3" d="M511.41,559.11l3.51,2,2,7.55-31.73,54.94-7.54,2-3.51-2Zm-16-9.22,15.32,8.85-37.24,64.51L458.2,614.4Zm-15.86-9.16,15.22,8.79L457.57,614l-15.22-8.78Zm-15.85-9.15L479,540.37l-37.25,64.51-15.22-8.79Zm-11.8-.43,7.54-2,3.62,2.09-37.25,64.51-3.61-2.08-2-7.55Z" transform="translate(367.92 54.63)"/><path class="cls-3" d="M473.37,625l3.51,2,2,7.55-22.71,39.34H445.13Zm-16-9.22,15.32,8.85-28.45,49.28H423.85Zm-15.86-9.15,15.22,8.78L423,673.91H409.11l-4.8-2.77Zm-15.85-9.16,15.21,8.79-37.24,64.51L388.45,662ZM413.9,597l7.54-2,3.62,2.09-37.25,64.51-3.61-2.08-2-7.55Z" transform="translate(367.92 54.63)"/><path class="cls-3" d="M403.51,672.51l2.41,1.4h-3.21Zm-15.86-9.15,15.22,8.79-1,1.76H381.56Zm-11.8-.43,7.55-2L387,663l-6.3,10.92h-11.2Z" transform="translate(367.92 54.63)"/><path class="cls-3" d="M691.93,399.76l3.51,2,2,7.55-31.72,54.94-7.55,2-3.51-2Zm-16-9.21,15.33,8.84L654,463.91l-15.32-8.85Zm-15.85-9.16,15.21,8.79-37.24,64.51-15.22-8.79Zm-15.86-9.15L659.47,381l-37.25,64.51L607,436.75Zm-11.8-.44,7.55-2,3.61,2.09-37.25,64.51-3.61-2.09-2-7.54Z" transform="translate(367.92 54.63)"/><path class="cls-3" d="M653.88,465.65l3.51,2,2,7.55L627.7,530.17l-7.55,2-3.51-2Zm-16-9.21,15.33,8.84L616,529.8,600.68,521Zm-15.86-9.16,15.22,8.79L600,520.58l-15.22-8.79Zm-15.85-9.15,15.22,8.78-37.25,64.52L569,502.64Zm-11.8-.44,7.54-2,3.62,2.09-37.25,64.51-3.61-2.09-2-7.54Z" transform="translate(367.92 54.63)"/><path class="cls-3" d="M615.84,531.54l3.51,2,2,7.55-31.73,54.94-7.54,2-3.51-2Zm-16-9.21,15.32,8.84L578,595.69l-15.33-8.85ZM584,513.17,599.24,522,562,586.47l-15.21-8.79ZM568.17,504l15.21,8.78-37.24,64.52-15.22-8.79Zm-11.8-.44,7.54-2,3.62,2.09-37.25,64.51-3.61-2.09-2-7.54Z" transform="translate(367.92 54.63)"/><path class="cls-3" d="M577.8,597.43l3.51,2,2,7.55L551.61,662l-7.54,2-3.52-2Zm-16-9.21,15.32,8.85-37.24,64.51-15.33-8.85ZM546,579.06l15.22,8.79L524,652.36l-15.21-8.78Zm-15.86-9.15,15.22,8.78L508.1,643.21l-15.22-8.79Zm-11.8-.44,7.55-2,3.61,2.09-37.24,64.51L488.63,632l-2-7.54Z" transform="translate(367.92 54.63)"/><path class="cls-3" d="M539.76,663.33l3.51,2,2,7.55-.58,1H533.65Zm-16-9.22L539.12,663l-6.32,10.95H512.37ZM507.94,645l15.22,8.79-11.65,20.17H491.22Zm-15.86-9.15,15.22,8.78-16.93,29.33H470.08Zm-11.8-.44,7.55-2,3.61,2.09-22.21,38.48H458Z" transform="translate(367.92 54.63)"/><path class="cls-3" d="M758.31,438.09l3.51,2,2,7.54-31.73,54.95-7.54,2-3.51-2Zm-16-9.21,15.32,8.84-37.24,64.51-15.33-8.84Zm-15.86-9.16,15.22,8.79L704.47,493l-15.22-8.79Zm-15.85-9.15,15.21,8.78-37.24,64.51-15.22-8.78Zm-11.8-.44,7.54-2L710,410.2l-37.25,64.51-3.61-2.09-2-7.54Z" transform="translate(367.92 54.63)"/><path class="cls-3" d="M720.27,504l3.51,2,2,7.55L694.08,568.5l-7.54,2-3.51-2Zm-16-9.21,15.32,8.84-37.24,64.52-15.33-8.85Zm-15.86-9.16,15.22,8.79-37.25,64.51-15.21-8.79Zm-15.86-9.15,15.22,8.78-37.24,64.51L635.35,541ZM660.8,476l7.54-2,3.62,2.09L634.71,540.6l-3.61-2.09-2-7.54Z" transform="translate(367.92 54.63)"/><path class="cls-3" d="M682.23,569.87l3.51,2,2,7.55L656,634.39l-7.55,2-3.51-2Zm-16-9.21,15.32,8.84L644.34,634,629,625.17Zm-15.86-9.16,15.22,8.79L628.38,624.8,613.16,616Zm-15.86-9.15,15.22,8.78-37.25,64.51-15.21-8.78Zm-11.8-.44,7.55-2,3.61,2.09-37.24,64.51-3.62-2.09-2-7.54Z" transform="translate(367.92 54.63)"/><path class="cls-3" d="M644.19,635.76l3.51,2,2,7.55-16.5,28.57H622.17Zm-16-9.21,15.33,8.84-22.24,38.52H600.88Zm-15.85-9.16,15.22,8.79L600,673.91H579.74Zm-15.86-9.15L611.73,617l-32.84,56.89H561.27l-2-1.16Zm-11.8-.44,7.55-2,3.61,2.09-37.24,64.51L555,670.29l-2-7.54Z" transform="translate(367.92 54.63)"/><polygon class="cls-3" points="914.59 728.32 922.13 726.3 925.75 728.39 925.66 728.53 914.46 728.53 914.59 728.32"/><path class="cls-3" d="M824.7,476.42l3.51,2,2,7.54-31.72,55L791,543l-3.52-2Zm-16-9.22,15.32,8.85-37.24,64.51-15.33-8.84Zm-15.86-9.15,15.22,8.79-37.25,64.51-15.21-8.79ZM777,448.89l15.22,8.79L755,522.19l-15.22-8.78Zm-11.8-.43,7.55-2,3.61,2.08L739.14,513,735.52,511l-2-7.55Z" transform="translate(367.92 54.63)"/><path class="cls-3" d="M786.66,542.31l3.51,2,2,7.54-31.72,55-7.55,2-3.51-2Zm-16-9.22L786,541.94l-37.25,64.51-15.32-8.84Zm-15.86-9.15,15.22,8.79-37.25,64.51-15.22-8.79ZM739,514.78l15.22,8.79L717,588.08l-15.21-8.78Zm-11.8-.43,7.55-2,3.61,2.09L701.1,578.93l-3.62-2.09-2-7.55Z" transform="translate(367.92 54.63)"/><path class="cls-3" d="M748.62,608.2l3.51,2,2,7.54-31.72,55L718,673.91h-4.55l-2.07-1.2Zm-16-9.22L748,607.83l-37.25,64.51-15.32-8.84Zm-15.85-9.15L732,598.62l-37.25,64.51-15.22-8.79Zm-15.86-9.16,15.22,8.79L678.91,654l-15.22-8.78Zm-11.8-.43,7.55-2,3.61,2.09-37.25,64.51-3.61-2.09-2-7.54Z" transform="translate(367.92 54.63)"/><path class="cls-3" d="M694.61,664.88l15.33,8.84-.11.19H689.4Zm-15.85-9.16L694,664.51l-5.42,9.4H668.26Zm-15.86-9.15,15.22,8.78L667.4,673.91H647.11Zm-11.8-.44,7.55-2,3.61,2.09-16,27.71h-11.2Z" transform="translate(367.92 54.63)"/><path class="cls-3" d="M891.09,514.75l3.51,2,2,7.54L864.9,579.27l-7.55,2-3.51-2Zm-16-9.22,15.32,8.85L853.2,578.89,837.88,570Zm-15.86-9.15,15.22,8.78-37.25,64.52L822,560.89Zm-15.86-9.16L858.63,496l-37.25,64.51-15.22-8.79Zm-11.8-.43,7.55-2,3.61,2.08-37.24,64.52-3.62-2.09-2-7.55Z" transform="translate(367.92 54.63)"/><path class="cls-3" d="M853.05,580.64l3.51,2,2,7.54-31.72,54.95-7.55,2-3.51-2Zm-16-9.22,15.33,8.85-37.25,64.51-15.32-8.84Zm-15.85-9.15,15.21,8.78L799.2,635.57,784,626.78Zm-15.86-9.16,15.22,8.79-37.25,64.51-15.22-8.78Zm-11.8-.43,7.55-2,3.61,2.08-37.25,64.52-3.61-2.09-2-7.55Z" transform="translate(367.92 54.63)"/><path class="cls-3" d="M815,646.53l3.51,2,2,7.54-10.28,17.81H799.2Zm-16-9.22,15.32,8.85-16,27.75H777.91Zm-15.86-9.15,15.22,8.78-21.34,37H756.77ZM767.33,619l15.22,8.79-26.63,46.12H735.63Zm-11.8-.43,7.54-2,3.62,2.08-31.91,55.28H723.91l-.1-.4Z" transform="translate(367.92 54.63)"/><path class="cls-3" d="M957.48,553.08l3.51,2,2,7.55-31.72,54.94-7.55,2-3.51-2Zm-16-9.22,15.33,8.85-37.25,64.51-15.32-8.85Zm-15.86-9.15,15.22,8.78L903.63,608l-15.22-8.78Zm-15.85-9.16L925,534.34l-37.25,64.51-15.22-8.79Zm-11.8-.43,7.54-2,3.62,2.08-37.25,64.51-3.61-2.08-2-7.55Z" transform="translate(367.92 54.63)"/><path class="cls-3" d="M919.43,619l3.51,2,2,7.54-26.2,45.37H887.71Zm-16-9.22,15.32,8.85-31.93,55.31H866.43Zm-15.86-9.15,15.22,8.78-37.24,64.51-15.22-8.78Zm-15.85-9.16L887,600.23l-37.24,64.51L834.51,656ZM860,591l7.54-2,3.62,2.08-37.25,64.51-3.61-2.08-2-7.55Z" transform="translate(367.92 54.63)"/><path class="cls-3" d="M849.57,666.49l12.85,7.42H845.29Zm-15.86-9.16,15.22,8.79-4.5,7.79H824.14Zm-11.8-.43,7.55-2,3.62,2.08-9.79,16.95h-11.2Z" transform="translate(367.92 54.63)"/><path class="cls-3" d="M1023.86,591.41l3.51,2,2,7.55-31.72,54.94-7.54,2-3.51-2Zm-16-9.22,15.32,8.85L986,655.55l-15.33-8.85ZM992,573l15.22,8.79L970,646.33l-15.21-8.78Zm-15.85-9.15,15.21,8.79-37.24,64.51-15.22-8.79Zm-11.8-.43,7.54-2,3.62,2.09L938.3,628l-3.61-2.08-2-7.55Z" transform="translate(367.92 54.63)"/><path class="cls-3" d="M985.82,657.3l3.51,2,2,7.55-4.06,7H976.23Zm-16-9.22,15.32,8.85-9.8,17H955ZM954,638.93l15.22,8.78-15.13,26.2H933.8Zm-15.86-9.16,15.22,8.79L933,673.91H912.66Zm-11.8-.43,7.55-2,3.61,2.08-25.69,44.51h-11.2Z" transform="translate(367.92 54.63)"/><path class="cls-3" d="M1090.25,629.73l3.51,2,2,7.55-20,34.6h-11.06Zm-16-9.21,15.32,8.85-25.72,44.54h-20.43Zm-15.86-9.16,15.22,8.79-31,53.76h-20.29Zm-15.86-9.15,15.22,8.78-36.32,62.92h-3.7l-12.44-7.19Zm-11.8-.43,7.55-2,3.61,2.09-37.24,64.51-3.62-2.08-2-7.55Z" transform="translate(367.92 54.63)"/><path class="cls-3" d="M1004.53,668.1l10.06,5.81h-13.41Zm-11.8-.43,7.55-2,3.61,2.09-3.57,6.18H989.13Z" transform="translate(367.92 54.63)"/><path class="cls-3" d="M1156.64,668.06l3.51,2,1,3.82h-7.91Zm-16-9.21,15.33,8.84-3.59,6.22H1132Zm-15.85-9.16,15.21,8.79-8.9,15.43h-20.29ZM1109,640.54l15.22,8.78L1110,673.91h-20.29Zm-11.8-.44,7.55-2,3.61,2.09-19.48,33.74h-11.2Z" transform="translate(367.92 54.63)"/><rect class="cls-4" x="202.4" width="878.95" height="752.98"/></g><path class="cls-5" d="M407.52,517a3.53,3.53,0,1,0,3.53,3.53A3.54,3.54,0,0,0,407.52,517Z" transform="translate(367.92 54.63)"/><path class="cls-5" d="M407.52,509.27a11.85,11.85,0,0,0-11.85,11.85c0,5.58,8.61,15.68,11.15,18.53a.92.92,0,0,0,1.39,0c2.54-2.85,11.16-12.95,11.16-18.53A11.86,11.86,0,0,0,407.52,509.27Zm0,17.14a5.86,5.86,0,1,1,5.86-5.86A5.87,5.87,0,0,1,407.52,526.41Z" transform="translate(367.92 54.63)"/><path class="cls-5" d="M474,471.4a3.54,3.54,0,1,0,3.53,3.53A3.54,3.54,0,0,0,474,471.4Z" transform="translate(367.92 54.63)"/><path class="cls-5" d="M474,463.65a11.85,11.85,0,0,0-11.85,11.85c0,5.58,8.62,15.68,11.15,18.53a.94.94,0,0,0,1.4,0c2.53-2.85,11.15-12.95,11.15-18.53A11.86,11.86,0,0,0,474,463.65Zm0,17.14a5.86,5.86,0,1,1,5.86-5.86A5.86,5.86,0,0,1,474,480.79Z" transform="translate(367.92 54.63)"/><path class="cls-5" d="M448.67,401.49A3.53,3.53,0,1,0,452.2,405,3.53,3.53,0,0,0,448.67,401.49Z" transform="translate(367.92 54.63)"/><path class="cls-5" d="M448.67,393.74a11.86,11.86,0,0,0-11.85,11.85c0,5.58,8.62,15.67,11.16,18.53a.92.92,0,0,0,1.39,0c2.54-2.86,11.15-12.95,11.15-18.53A11.85,11.85,0,0,0,448.67,393.74Zm0,17.14a5.86,5.86,0,1,1,5.86-5.86A5.87,5.87,0,0,1,448.67,410.88Z" transform="translate(367.92 54.63)"/><path class="cls-5" d="M479.41,333.56a3.53,3.53,0,1,0,3.54,3.53A3.54,3.54,0,0,0,479.41,333.56Z" transform="translate(367.92 54.63)"/><path class="cls-5" d="M479.41,325.81a11.85,11.85,0,0,0-11.85,11.85c0,5.58,8.62,15.67,11.16,18.53a.94.94,0,0,0,1.39,0c2.54-2.86,11.15-12.95,11.15-18.53A11.84,11.84,0,0,0,479.41,325.81Zm0,17.14a5.86,5.86,0,1,1,5.86-5.86A5.87,5.87,0,0,1,479.41,343Z" transform="translate(367.92 54.63)"/><path class="cls-5" d="M428.84,321.66a3.53,3.53,0,1,0,3.53,3.53A3.53,3.53,0,0,0,428.84,321.66Z" transform="translate(367.92 54.63)"/><path class="cls-5" d="M428.84,313.91A11.84,11.84,0,0,0,417,325.76c0,5.58,8.61,15.67,11.15,18.53a.94.94,0,0,0,1.39,0c2.54-2.86,11.16-13,11.16-18.53A11.85,11.85,0,0,0,428.84,313.91Zm0,17.14a5.86,5.86,0,1,1,5.86-5.86A5.87,5.87,0,0,1,428.84,331.05Z" transform="translate(367.92 54.63)"/><path class="cls-5" d="M486.85,258.69a3.53,3.53,0,1,0,3.53,3.53A3.53,3.53,0,0,0,486.85,258.69Z" transform="translate(367.92 54.63)"/><path class="cls-5" d="M486.85,250.94A11.85,11.85,0,0,0,475,262.79c0,5.58,8.62,15.67,11.16,18.52a.92.92,0,0,0,1.39,0c2.54-2.85,11.15-12.94,11.15-18.52A11.84,11.84,0,0,0,486.85,250.94Zm0,17.14a5.86,5.86,0,1,1,5.86-5.86A5.87,5.87,0,0,1,486.85,268.08Z" transform="translate(367.92 54.63)"/><path class="cls-5" d="M146.7,253.73a3.53,3.53,0,1,0,3.53,3.53A3.53,3.53,0,0,0,146.7,253.73Z" transform="translate(367.92 54.63)"/><path class="cls-5" d="M146.7,246a11.85,11.85,0,0,0-11.85,11.85c0,5.58,8.62,15.67,11.16,18.53a.94.94,0,0,0,1.39,0c2.54-2.86,11.15-12.95,11.15-18.53A11.84,11.84,0,0,0,146.7,246Zm0,17.14a5.86,5.86,0,1,1,5.86-5.86A5.87,5.87,0,0,1,146.7,263.12Z" transform="translate(367.92 54.63)"/><path class="cls-5" d="M32.66,198.19a3.54,3.54,0,1,0,3.53,3.53A3.54,3.54,0,0,0,32.66,198.19Z" transform="translate(367.92 54.63)"/><path class="cls-5" d="M32.66,190.44a11.85,11.85,0,0,0-11.85,11.85c0,5.58,8.61,15.68,11.15,18.53a.92.92,0,0,0,1.39,0c2.54-2.85,11.16-12.95,11.16-18.53A11.86,11.86,0,0,0,32.66,190.44Zm0,17.14a5.86,5.86,0,1,1,5.86-5.86A5.87,5.87,0,0,1,32.66,207.58Z" transform="translate(367.92 54.63)"/><g class="cls-6"><text class="cls-7" transform="translate(539 262.23)">AFRI<tspan class="cls-8" x="133.49" y="0">C</tspan><tspan x="176.93" y="0">A</tspan></text></g></g></g></svg>