<svg xmlns="http://www.w3.org/2000/svg" viewBox="0 0 98.24 98.24"><defs><style>.cls-1{fill:#155974;}.cls-2{fill:none;stroke:#fff;stroke-linecap:round;stroke-linejoin:round;stroke-width:2px;}</style></defs><g id="Layer_2" data-name="Layer 2"><g id="Layer_1-2" data-name="Layer 1"><circle class="cls-1" cx="49.12" cy="49.12" r="49.12" transform="translate(-7.23 89.74) rotate(-80.78)"/><polygon class="cls-2" points="72.68 66.12 30.79 66.12 37.23 37.12 79.12 37.12 72.68 66.12"/><line class="cls-2" x1="40.45" y1="51.08" x2="75.9" y2="51.08"/><polyline class="cls-2" points="50.12 66.12 58.12 66.12 58.12 79.12 50.12 79.12"/><line class="cls-2" x1="38.12" y1="79.12" x2="70.12" y2="79.12"/><line class="cls-2" x1="50.12" y1="79.12" x2="50.12" y2="67.12"/><line class="cls-2" x1="50.08" y1="42.12" x2="45.86" y2="61.12"/><line class="cls-2" x1="59.82" y1="61.12" x2="64.05" y2="42.12"/><polyline class="cls-2" points="51.19 37.12 37.23 37.12 30.79 66.12 44.75 66.12"/><line class="cls-2" x1="45.86" y1="61.12" x2="50.08" y2="42.12"/><line class="cls-2" x1="64.05" y1="42.12" x2="59.82" y2="61.12"/><polyline class="cls-2" points="58.71 66.12 72.67 66.12 79.12 37.12 65.16 37.12"/><path class="cls-2" d="M47.12,37.12A10,10,0,1,0,31,45"/><line class="cls-2" x1="37.12" y1="19.12" x2="37.12" y2="23.12"/><line class="cls-2" x1="24.39" y1="24.39" x2="27.22" y2="27.22"/><line class="cls-2" x1="19.12" y1="37.12" x2="23.12" y2="37.12"/><line class="cls-2" x1="24.39" y1="49.85" x2="27.22" y2="47.02"/><line class="cls-2" x1="55.12" y1="37.12" x2="51.12" y2="37.12"/><line class="cls-2" x1="49.85" y1="24.39" x2="47.02" y2="27.22"/></g></g></svg>