<svg xmlns="http://www.w3.org/2000/svg" viewBox="0 0 159 159"><defs><style>.cls-1{fill:#ffa84b;}.cls-2{fill:#fff;}</style></defs><g id="Layer_2" data-name="Layer 2"><g id="Capa_1" data-name="Capa 1"><circle class="cls-1" cx="79.5" cy="79.5" r="79.5"/><path class="cls-2" d="M110.86,87.58a1.44,1.44,0,0,0,1.7-1.13,33.38,33.38,0,1,0-13.69,20.73,1.44,1.44,0,1,0-1.65-2.36,30.5,30.5,0,1,1,13.13-25.08,30.74,30.74,0,0,1-.61,6.14A1.44,1.44,0,0,0,110.86,87.58Z"/><path class="cls-2" d="M41.36,90.18a1.44,1.44,0,0,0,1.08-1.72A38.5,38.5,0,0,1,62,45.71a1.44,1.44,0,1,0-1.34-2.55,41.26,41.26,0,0,0-7,4.61l-12-11.41a1.44,1.44,0,1,0-2,2.08L51.55,49.67A41.19,41.19,0,0,0,38.6,78.05l-21.43.54a1.44,1.44,0,0,0,0,2.88h0l21.33-.54a41.35,41.35,0,0,0,1.05,8.17A1.45,1.45,0,0,0,41,90.22,1.24,1.24,0,0,0,41.36,90.18Z"/><path class="cls-2" d="M142.51,78h0l-21.35.54a41.11,41.11,0,0,0-10.55-26.38l11.28-11.85a1.44,1.44,0,0,0-2.09-2L108.57,50.11a41.18,41.18,0,0,0-27-11.62L81,17.06a1.42,1.42,0,0,0-1.48-1.4,1.44,1.44,0,0,0-1.4,1.47l.54,21.34c-1.35,0-2.69.14-4,.31A1.44,1.44,0,1,0,75,41.63a39.22,39.22,0,0,1,4.85-.3,38.3,38.3,0,0,1,27.36,11.48,1.34,1.34,0,0,0,.33.47,1.61,1.61,0,0,0,.34.24,38.4,38.4,0,0,1-52.78,55.6,1.32,1.32,0,0,0-.29-.39,1.24,1.24,0,0,0-.53-.31,38.73,38.73,0,0,1-6.35-7.3,1.44,1.44,0,1,0-2.39,1.61,41.78,41.78,0,0,0,6.14,7.21L40.52,121.69a1.44,1.44,0,0,0,1,2.43,1.46,1.46,0,0,0,1-.45l11.26-11.84A41.23,41.23,0,0,0,78.17,121l.54,21.43a1.44,1.44,0,0,0,1.44,1.4h0a1.44,1.44,0,0,0,1.41-1.47L81.05,121a41.41,41.41,0,0,0,30.25-14.53l11.78,11.21a1.47,1.47,0,0,0,1,.39,1.42,1.42,0,0,0,1-.45,1.44,1.44,0,0,0-.05-2l-12-11.38a40.94,40.94,0,0,0,8-22.78l21.43-.54a1.44,1.44,0,0,0,0-2.88Z"/><path class="cls-2" d="M71.27,102.47a1.46,1.46,0,0,0,.86.29,1.42,1.42,0,0,0,1.09-.5L96.1,75.66a1.44,1.44,0,0,0-1.3-2.36L78.13,75.75,86.9,58.83A1.45,1.45,0,0,0,86.38,57a1.43,1.43,0,0,0-1.92.37L66,82.55a1.44,1.44,0,0,0,1.36,2.28l15-2.1L70.92,100.54A1.44,1.44,0,0,0,71.27,102.47Zm-1-21L75.79,74l-1.5,2.9a1.45,1.45,0,0,0,.1,1.5,1.46,1.46,0,0,0,1.38.59l15.63-2.3-6.85,8,2-3a1.45,1.45,0,0,0-1.21-2.22l-.2,0Z"/></g></g></svg>