<svg xmlns="http://www.w3.org/2000/svg" viewBox="0 0 159 159"><defs><style>.cls-1{fill:#1c779b;}.cls-2{fill:#fff;}</style></defs><g id="Layer_2" data-name="Layer 2"><g id="Capa_1" data-name="Capa 1"><circle class="cls-1" cx="79.5" cy="79.5" r="79.5"/><path class="cls-2" d="M110.31,65.08A31.76,31.76,0,1,0,79.67,88.32,31.65,31.65,0,0,0,110.31,65.08ZM79.67,85.89A29.39,29.39,0,1,1,108,64.43,29.3,29.3,0,0,1,79.67,85.89Z"/><path class="cls-2" d="M106.61,55.18h0l-8,.08a48.23,48.23,0,0,0-1-7.64,52,52,0,0,0-2-6.95l4.41-.05a1.21,1.21,0,0,0,0-2.42h0l-5.35,0a39.09,39.09,0,0,0-3.07-5.9,1.21,1.21,0,1,0-2,1.35,35.71,35.71,0,0,1,2.42,4.58l-10.22.09V30.23A1.22,1.22,0,0,0,80.43,29h0a1.21,1.21,0,0,0-1.21,1.21V38.4l-11,.11a36.79,36.79,0,0,1,2.53-4.81,1.21,1.21,0,0,0-2-1.35,40.07,40.07,0,0,0-3.18,6.18l-5.75.06a1.21,1.21,0,0,0,0,2.42h0l4.77,0a51.79,51.79,0,0,0-1.93,6.65,47.07,47.07,0,0,0-1,8l-8.29.09a1.21,1.21,0,0,0,0,2.42h0l8.23-.08a43.39,43.39,0,0,0,2.71,14.65l-4.38.05a1.21,1.21,0,0,0,0,2.42h0l5.32,0a47.63,47.63,0,0,0,3.56,6.61,1.24,1.24,0,0,0,1,.55,1.21,1.21,0,0,0,.66-.19,1.22,1.22,0,0,0,.36-1.68,46.65,46.65,0,0,1-3-5.32L79.15,75v8.36a1.21,1.21,0,0,0,1.21,1.21h0a1.21,1.21,0,0,0,1.21-1.21l0-8.38,10.81-.11a45.49,45.49,0,0,1-3.08,5.56,1.22,1.22,0,0,0,.36,1.68,1.25,1.25,0,0,0,.66.19,1.22,1.22,0,0,0,1-.55A47,47,0,0,0,95,74.87l4.95-.05a1.22,1.22,0,1,0,0-2.43l-4,0a43.42,43.42,0,0,0,2.6-14.74l8-.09a1.21,1.21,0,0,0,0-2.42ZM92.88,40.69a50.27,50.27,0,0,1,2.28,7.53,44.91,44.91,0,0,1,1,7.07l-14.52.15,0-14.64ZM64.94,48.22a50.39,50.39,0,0,1,2.19-7.28l12.07-.12,0,14.65L64,55.63A46,46,0,0,1,64.94,48.22Zm1.84,24.5a40.11,40.11,0,0,1-2.87-14.66l15.26-.16,0,14.7Zm26.64-.26-11.84.11,0-14.7,14.59-.16A40,40,0,0,1,93.42,72.46Z"/><path class="cls-2" d="M44,105.27c-5.09-5-5.8-13.12-5.8-13.18L36.58,69.33c0-.87.3-4.12,1.77-4.18h0c1.61,0,2,3,2,3l1.12,12.51a1.21,1.21,0,0,0,1.32,1.1A1.22,1.22,0,0,0,44,80.47L42.84,67.94c-.23-2-1.45-5.33-4.59-5.22S34.13,67,34.16,69.39v.07l1.59,22.81c0,.36.78,9,6.51,14.73,6.57,6.49,10.36,12.37,10.42,16.12a1.21,1.21,0,0,0,1.21,1.2h0a1.21,1.21,0,0,0,1.19-1.23C55,117.39,49,110.26,44,105.27Z"/><path class="cls-2" d="M64.81,97.34a26.9,26.9,0,0,0-4-2.59c-.56-.33-1.14-.66-1.69-1A16.72,16.72,0,0,1,56,90.87c-.41-.44-.84-.89-1.26-1.32-1.42-1.4-3-2.92-5.11-4.92l-.28-.27C48,83.09,45.75,81,43,82.57c-2.42,1.45-1.09,5.09-.51,6.65l0,.14a31.59,31.59,0,0,0,5.16,8.5c.33.42.66.83,1,1.25.66.82,1.34,1.68,2,2.53.13.17.27.36.42.54A6.4,6.4,0,0,1,52.68,105,1.19,1.19,0,0,0,54,106.13a1.22,1.22,0,0,0,1.15-1.28A7.89,7.89,0,0,0,53,100.69l-.39-.51c-.66-.88-1.35-1.74-2-2.58l-1-1.23a29.57,29.57,0,0,1-4.8-7.85l-.05-.13c-1.1-3-.73-3.61-.52-3.73,1-.58,1.71-.12,3.35,1.45l.29.28c2.1,2,3.66,3.5,5.07,4.89.4.39.79.8,1.2,1.24a18.55,18.55,0,0,0,3.67,3.29c.59.37,1.19.71,1.77,1a25.44,25.44,0,0,1,3.65,2.37,11.39,11.39,0,0,1,4.31,6.58,18,18,0,0,1-.12,5.57l0,.47a64.09,64.09,0,0,0-.18,10.69,1.22,1.22,0,0,0,1.21,1.13h.09a1.22,1.22,0,0,0,1.12-1.3,63.53,63.53,0,0,1,.16-10.24l.06-.46a20.48,20.48,0,0,0,.1-6.31A13.81,13.81,0,0,0,64.81,97.34Z"/><path class="cls-2" d="M121,63.24c-3.12-.25-4.46,3.07-4.77,5.08l-1.56,12.46a1.21,1.21,0,1,0,2.4.3l1.57-12.43s.54-3.11,2.18-3c1.48.11,1.65,3.33,1.62,4.25L120,92.58c0,.08-1,8.14-6.27,13S102.28,117.28,102,123a1.23,1.23,0,0,0,1.15,1.28h.07a1.22,1.22,0,0,0,1.21-1.15c.18-3.75,4.19-9.49,11-15.75,5.93-5.47,7-14.13,7-14.5l2.4-22.73v-.07C125,67.64,124.26,63.49,121,63.24Z"/><path class="cls-2" d="M105.24,91.26c1.45-1.34,3.12-2.83,5.25-4.71l.29-.27c1.7-1.51,2.47-1.94,3.4-1.33.21.13.55.76-.65,3.71l-.06.14a29.34,29.34,0,0,1-5.07,7.66c-.33.4-.68.8-1,1.2-.69.81-1.41,1.65-2.1,2.51l-.41.49a7.92,7.92,0,0,0-2.23,4.09,1.21,1.21,0,0,0,2.42.22,6.4,6.4,0,0,1,1.66-2.74l.45-.54c.66-.83,1.37-1.65,2.06-2.45.34-.41.69-.81,1-1.21a32,32,0,0,0,5.46-8.32l.06-.14c.62-1.53,2.09-5.13-.28-6.66-2.66-1.72-5,.34-6.33,1.57l-.29.25c-2.14,1.89-3.82,3.4-5.28,4.74-.44.41-.88.85-1.31,1.27A16.76,16.76,0,0,1,99,93.51c-.56.32-1.16.63-1.73.94A28.27,28.27,0,0,0,93.2,96.9a13.75,13.75,0,0,0-5.43,7.82,20.61,20.61,0,0,0-.13,6.31l0,.46a63.2,63.2,0,0,1-.2,10.24,1.21,1.21,0,0,0,1.07,1.33h.14a1.21,1.21,0,0,0,1.2-1.08,64.06,64.06,0,0,0,.21-10.7l0-.47a17.8,17.8,0,0,1,.08-5.56,11.35,11.35,0,0,1,4.54-6.43,25.76,25.76,0,0,1,3.73-2.24c.59-.31,1.2-.63,1.8-1A18.3,18.3,0,0,0,104,92.46C104.43,92,104.83,91.63,105.24,91.26Z"/></g></g></svg>