<svg xmlns="http://www.w3.org/2000/svg" viewBox="0 0 159 159"><defs><style>.cls-1{fill:#ffa84b;}.cls-2{fill:#fff;}</style></defs><g id="Layer_2" data-name="Layer 2"><g id="Capa_1" data-name="Capa 1"><circle class="cls-1" cx="79.5" cy="79.5" r="79.5"/><path class="cls-2" d="M45.74,112.12H30.06a1.48,1.48,0,0,0-1.48,1.48V125a1.49,1.49,0,0,0,3,0v-9.9h12.7V125a1.49,1.49,0,0,0,3,0V113.6A1.48,1.48,0,0,0,45.74,112.12Z"/><path class="cls-2" d="M70.54,101.82H54.87a1.49,1.49,0,0,0-1.49,1.48V125a1.49,1.49,0,0,0,3,0v-20.2H69.06V125a1.48,1.48,0,1,0,3,0V103.3A1.48,1.48,0,0,0,70.54,101.82Z"/><path class="cls-2" d="M94.85,81.17H79.18a1.49,1.49,0,0,0-1.49,1.49V125a1.49,1.49,0,0,0,3,0V84.14H93.37V125a1.49,1.49,0,0,0,3,0V82.66A1.49,1.49,0,0,0,94.85,81.17Z"/><path class="cls-2" d="M119.78,50.32H104.11a1.49,1.49,0,0,0-1.49,1.49V125a1.49,1.49,0,0,0,3,0V53.29h12.7V125a1.49,1.49,0,0,0,3,0V51.81A1.49,1.49,0,0,0,119.78,50.32Z"/><path class="cls-2" d="M94.87,35a1.48,1.48,0,0,0-1-.67l-8-1.16,9.81-9.92,7.09,14a1.48,1.48,0,0,0,2.65-1.34L97.41,20a1.48,1.48,0,0,0-1.1-.79,1.45,1.45,0,0,0-1.28.42L81.7,33.14a1.49,1.49,0,0,0,.84,2.51L91.67,37A84.44,84.44,0,0,1,59.12,80.72a79,79,0,0,1-22.63,11,1.48,1.48,0,1,0,.72,2.88c.45-.11,11-2.84,23.5-11.4A87.51,87.51,0,0,0,95,36.2,1.53,1.53,0,0,0,94.87,35Z"/></g></g></svg>