<svg xmlns="http://www.w3.org/2000/svg" viewBox="0 0 69.3 71.07"><defs><style>.cls-1{fill:none;stroke:#fff;stroke-linecap:round;stroke-linejoin:round;stroke-width:2px;}</style></defs><g id="Layer_2" data-name="Layer 2"><g id="Layer_1-2" data-name="Layer 1"><polyline class="cls-1" points="13.24 27.24 7.12 27.24 1 70.07 62.19 70.07"/><polyline class="cls-1" points="26.7 70.07 20.58 27.24 13.24 27.24"/><polyline class="cls-1" points="24.25 45.59 38.94 38.25 38.94 50.49"/><polyline class="cls-1" points="38.94 45.59 53.62 38.25 53.62 50.49"/><polyline class="cls-1" points="53.62 45.59 68.3 38.25 68.3 70.07"/><line class="cls-1" x1="30.37" y1="56.6" x2="32.82" y2="56.6"/><line class="cls-1" x1="45.05" y1="56.6" x2="47.5" y2="56.6"/><line class="cls-1" x1="59.74" y1="56.6" x2="62.19" y2="56.6"/><path class="cls-1" d="M34,6.43c-15.91,0-20.8,11-20.8,15.91"/><path class="cls-1" d="M20.58,18.67S26.7,22.34,34,16.22,43.83,2.76,43.83,1.54C38.94,2.76,30.58-.14,23,1.54,12,4,15.68,15,15.68,15"/></g></g></svg>