<svg xmlns="http://www.w3.org/2000/svg" viewBox="0 0 28.96 28.97"><defs><style>.cls-1{fill:#1c779b;}.cls-2{fill:#fff;}</style></defs><g id="Layer_2" data-name="Layer 2"><g id="Layer_1-2" data-name="Layer 1"><path class="cls-1" d="M29,14.48A14.48,14.48,0,1,0,12.22,28.79V18.67H8.54V14.48h3.68V11.29c0-3.63,2.16-5.63,5.47-5.63a22.53,22.53,0,0,1,3.24.28V9.5H19.11a2.1,2.1,0,0,0-2.36,2.27v2.71h4l-.64,4.19H16.75V28.79A14.49,14.49,0,0,0,29,14.48Z"/><path class="cls-2" d="M20.12,18.67l.64-4.19h-4V11.77A2.1,2.1,0,0,1,19.11,9.5h1.82V5.94a22.53,22.53,0,0,0-3.24-.28c-3.31,0-5.47,2-5.47,5.63v3.19H8.54v4.19h3.68V28.79a15.31,15.31,0,0,0,2.26.18,15.45,15.45,0,0,0,2.27-.18V18.67Z"/></g></g></svg>