<svg xmlns="http://www.w3.org/2000/svg" viewBox="0 0 28.96 28.97"><defs><style>.cls-1{fill:#1c779b;}.cls-2{fill:#fff;}</style></defs><g id="Layer_2" data-name="Layer 2"><g id="Layer_1-2" data-name="Layer 1"><path class="cls-1" d="M29,14.48A14.48,14.48,0,1,1,14.48,0,14.48,14.48,0,0,1,29,14.48Z"/><path class="cls-2" d="M19,9a1,1,0,1,0,1,1A1,1,0,0,0,19,9Z"/><path class="cls-2" d="M14.55,10.28a4.18,4.18,0,1,0,4.18,4.18A4.19,4.19,0,0,0,14.55,10.28Zm0,6.86a2.68,2.68,0,1,1,2.68-2.68A2.69,2.69,0,0,1,14.55,17.14Z"/><path class="cls-2" d="M17.87,23H11.09A5.11,5.11,0,0,1,6,17.85V11.07A5.11,5.11,0,0,1,11.09,6h6.78a5.11,5.11,0,0,1,5.1,5.1v6.78A5.11,5.11,0,0,1,17.87,23ZM11.09,7.57a3.5,3.5,0,0,0-3.5,3.5v6.78a3.5,3.5,0,0,0,3.5,3.5h6.78a3.51,3.51,0,0,0,3.51-3.5V11.07a3.51,3.51,0,0,0-3.51-3.5Z"/></g></g></svg>