<svg xmlns="http://www.w3.org/2000/svg" viewBox="0 0 18.49 23.94"><defs><style>.cls-1{fill:#1c779b;}</style></defs><g id="Layer_2" data-name="Layer 2"><g id="Layer_1-2" data-name="Layer 1"><path class="cls-1" d="M9.24,6.05A2.75,2.75,0,1,0,12,8.8,2.75,2.75,0,0,0,9.24,6.05Z"/><path class="cls-1" d="M9.24,0A9.24,9.24,0,0,0,0,9.24C0,13.6,6.72,21.47,8.7,23.7a.74.74,0,0,0,1.09,0c2-2.23,8.7-10.1,8.7-14.46A9.25,9.25,0,0,0,9.24,0Zm0,13.37A4.57,4.57,0,1,1,13.81,8.8,4.58,4.58,0,0,1,9.24,13.37Z"/></g></g></svg>