<svg xmlns="http://www.w3.org/2000/svg" viewBox="0 0 52.11 60.76"><defs><style>.cls-1,.cls-2{fill:#33b1e5;}.cls-2{opacity:0.1;}.cls-3{fill:#fcc000;}</style></defs><g id="Layer_2" data-name="Layer 2"><g id="Layer_1-2" data-name="Layer 1"><path class="cls-1" d="M25.33,9.64h-.07s0,0,.06,0S25.32,9.65,25.33,9.64Z"/><path class="cls-1" d="M5.41,29.64A6.45,6.45,0,0,0,6,30a9.84,9.84,0,0,1-1-.8A.84.84,0,0,0,5.41,29.64Z"/><path class="cls-1" d="M36.26,51a48.49,48.49,0,0,1-4.55,5.54,47.6,47.6,0,0,1-4.31,4,1.19,1.19,0,0,1,.25.11c.71.35,1.18-.06,1.87-.28a5.71,5.71,0,0,1,2.18-.11c1.35.16,2.72-1.2,3.58-2.06A9.12,9.12,0,0,0,37,55.83c.24-.5.13-1.64.48-2,1-.93,2-.32,2.07-2a4.18,4.18,0,0,0-.16-1C39.33,50.45,38.05,50.52,36.26,51Z"/><path class="cls-1" d="M44,42.6c-.07-.6-.64-.72-.72-1.31a6.46,6.46,0,0,1,0-.65,3.08,3.08,0,0,0,0-1.22c-.21-.46-.74-.4-.46-1l.28-.69c0-.09-.08-.13-.32-.12A47.28,47.28,0,0,1,38,48.36l.37-.13c2.81-1,5.4-2.18,5.53-2.77a3.83,3.83,0,0,0,0-1.1C43.85,43.77,44.05,43.2,44,42.6Z"/><path class="cls-1" d="M52,25c.35-1.26-1.09-.28-1.62-.17a19,19,0,0,0-3.12.78c-.21.08-.49-.08-.74-.28a3.26,3.26,0,0,0-1.7.07,48.83,48.83,0,0,1-1.29,9.45A19,19,0,0,0,48.3,32a10.11,10.11,0,0,0,2.19-2.79c.37-.87.9-1.67,1.25-2.54l.2-.58c.12-.32.22-.65.15-.78S52,25.11,52,25Z"/><path class="cls-1" d="M48.72,46.58c-1.33.46-2.43.88-2.47.93a.24.24,0,0,1-.06.09c-.33.42,0,1.31.08,1.77s-.54,1.1-.8,1.47c-.49.71,0,1.08,0,1.76s0,1.65,1,1.74c1.2.1,1.72-.92,2-1.88.48-1.4,1.29-2.67,1.76-4.06A12.33,12.33,0,0,1,51,46.77a1,1,0,0,0,.12-.5C51.17,46,50.05,46.12,48.72,46.58Z"/><path class="cls-1" d="M17.25,10C20.07,9,22.2,8.14,22,8.07a.84.84,0,0,1-.35-.14s0,0,0,0c-.07-.25.45-.73.6-.9.37-.41-.13-.56-.22-.86,0-.15.1-.27.23-.39s0-.35-.27-.43l-.5-.18a7.53,7.53,0,0,0-2.82.27c-.74.14-1.56-.21-2.33-.12a8.18,8.18,0,0,0-2.09.76c-.63.25-.88,0-1.39,0-.27,0-.54,0-.81,0-.48.05-.34-.44-.67-.59-.6-.27-1.08,1.18-1.43,1.44s-.84.58-1.25.87a46.66,46.66,0,0,1,4.58,3.57Z"/><path class="cls-2" d="M17.25,10C20.07,9,22.2,8.14,22,8.07a.84.84,0,0,1-.35-.14s0,0,0,0c-.07-.25.45-.73.6-.9.37-.41-.13-.56-.22-.86,0-.15.1-.27.23-.39s0-.35-.27-.43l-.5-.18a7.53,7.53,0,0,0-2.82.27c-.74.14-1.56-.21-2.33-.12a8.18,8.18,0,0,0-2.09.76c-.63.25-.88,0-1.39,0-.27,0-.54,0-.81,0-.48.05-.34-.44-.67-.59-.6-.27-1.08,1.18-1.43,1.44s-.84.58-1.25.87a46.66,46.66,0,0,1,4.58,3.57Z"/><path class="cls-1" d="M25.32,9.68s-.05,0-.06,0A26.08,26.08,0,0,0,20,11l-5.25,1.81A47.51,47.51,0,0,1,21,20.09L27,18a13.9,13.9,0,0,1-1.77-6.81A12.83,12.83,0,0,1,25.32,9.68Z"/><path class="cls-2" d="M25.32,9.68s-.05,0-.06,0A26.08,26.08,0,0,0,20,11l-5.25,1.81A47.51,47.51,0,0,1,21,20.09L27,18a13.9,13.9,0,0,1-1.77-6.81A12.83,12.83,0,0,1,25.32,9.68Z"/><path class="cls-1" d="M38.92,25.28A14.06,14.06,0,0,1,28,19.58l-6,2.07a47.19,47.19,0,0,1,4.08,8.05Z"/><path class="cls-2" d="M38.92,25.28A14.06,14.06,0,0,1,28,19.58l-6,2.07a47.19,47.19,0,0,1,4.08,8.05Z"/><path class="cls-1" d="M36.26,51c-.65.16-1.36.37-2.11.63L30,53c-.38.14-.73.28-1.07.43a48.9,48.9,0,0,1-1.51,7h0a47.6,47.6,0,0,0,4.31-4A48.49,48.49,0,0,0,36.26,51Z"/><path class="cls-2" d="M36.26,51c-.65.16-1.36.37-2.11.63L30,53c-.38.14-.73.28-1.07.43a48.9,48.9,0,0,1-1.51,7h0a47.6,47.6,0,0,0,4.31-4A48.49,48.49,0,0,0,36.26,51Z"/><path class="cls-1" d="M38.28,38.79,29.07,42a47.17,47.17,0,0,1,.07,9.43l.41-.13L38,48.36h0a47.28,47.28,0,0,0,4.81-10.77A22.26,22.26,0,0,0,38.28,38.79Z"/><path class="cls-2" d="M38.28,38.79,29.07,42a47.17,47.17,0,0,1,.07,9.43l.41-.13L38,48.36h0a47.28,47.28,0,0,0,4.81-10.77A22.26,22.26,0,0,0,38.28,38.79Z"/><path class="cls-1" d="M40.83,26.54,26.71,31.4a47.32,47.32,0,0,1,2.13,8.73l11.7-4c.94-.33,2-.75,3-1.21a48.83,48.83,0,0,0,1.29-9.45A30.33,30.33,0,0,0,40.83,26.54Z"/><path class="cls-2" d="M40.83,26.54,26.71,31.4a47.32,47.32,0,0,1,2.13,8.73l11.7-4c.94-.33,2-.75,3-1.21a48.83,48.83,0,0,0,1.29-9.45A30.33,30.33,0,0,0,40.83,26.54Z"/><path class="cls-1" d="M6.77,13.62l6.47-2.23A46.66,46.66,0,0,0,8.66,7.82a6.42,6.42,0,0,0-.73.6c-.6.57-.32,1.48-1,2.06S5,11,4.61,11.75s-.92.74-1.25,1.41a1.88,1.88,0,0,1-.14.24c-.17.26-.42.58-.67.89C2.06,14.89,4,14.59,6.77,13.62Z"/><path class="cls-2" d="M6.77,13.62l6.47-2.23A46.66,46.66,0,0,0,8.66,7.82a6.42,6.42,0,0,0-.73.6c-.6.57-.32,1.48-1,2.06S5,11,4.61,11.75s-.92.74-1.25,1.41a1.88,1.88,0,0,1-.14.24c-.17.26-.42.58-.67.89C2.06,14.89,4,14.59,6.77,13.62Z"/><path class="cls-2" d="M6.77,13.62l6.47-2.23A46.66,46.66,0,0,0,8.66,7.82a6.42,6.42,0,0,0-.73.6c-.6.57-.32,1.48-1,2.06S5,11,4.61,11.75s-.92.74-1.25,1.41a1.88,1.88,0,0,1-.14.24c-.17.26-.42.58-.67.89C2.06,14.89,4,14.59,6.77,13.62Z"/><path class="cls-2" d="M.5,21.25a2.14,2.14,0,0,0-.5.53s.08.33.2.74A1.38,1.38,0,0,1,.5,21.25Z"/><path class="cls-2" d="M.5,21.25a2.14,2.14,0,0,0-.5.53s.08.33.2.74A1.38,1.38,0,0,1,.5,21.25Z"/><path class="cls-1" d="M6.65,15.58a35.07,35.07,0,0,0-5.24,2.08l-.1.15,0,.08h0a.25.25,0,0,0,0,.07c-.12.44.32.87.13,1.43s-.32.84-.47,1.26a1.35,1.35,0,0,1-.41.6,1.38,1.38,0,0,0-.3,1.27c.06.23.14.48.22.73.26.8.58,1.28.42,1.32s-.15.27.11.38a2.66,2.66,0,0,1,.91.57c.33.28.69.54.79.8l0,0c.06,0,2.33-.76,5.11-1.72L21,20.09a47.51,47.51,0,0,0-6.22-7.31Z"/><path class="cls-2" d="M6.65,15.58a35.07,35.07,0,0,0-5.24,2.08l-.1.15,0,.08h0a.25.25,0,0,0,0,.07c-.12.44.32.87.13,1.43s-.32.84-.47,1.26a1.35,1.35,0,0,1-.41.6,1.38,1.38,0,0,0-.3,1.27c.06.23.14.48.22.73.26.8.58,1.28.42,1.32s-.15.27.11.38a2.66,2.66,0,0,1,.91.57c.33.28.69.54.79.8l0,0c.06,0,2.33-.76,5.11-1.72L21,20.09a47.51,47.51,0,0,0-6.22-7.31Z"/><path class="cls-2" d="M6.65,15.58a35.07,35.07,0,0,0-5.24,2.08l-.1.15,0,.08h0a.25.25,0,0,0,0,.07c-.12.44.32.87.13,1.43s-.32.84-.47,1.26a1.35,1.35,0,0,1-.41.6,1.38,1.38,0,0,0-.3,1.27c.06.23.14.48.22.73.26.8.58,1.28.42,1.32s-.15.27.11.38a2.66,2.66,0,0,1,.91.57c.33.28.69.54.79.8l0,0c.06,0,2.33-.76,5.11-1.72L21,20.09a47.51,47.51,0,0,0-6.22-7.31Z"/><path class="cls-2" d="M6,30a2.13,2.13,0,0,0,1.72.34A3,3,0,0,1,6,30Z"/><path class="cls-2" d="M6,30a2.13,2.13,0,0,0,1.72.34A3,3,0,0,1,6,30Z"/><path class="cls-1" d="M20.28,31.3c.11.18,2.42-.43,5.24-1.4l.57-.2a47.19,47.19,0,0,0-4.08-8L8.52,26.3c-2.3.79-3.71,2-3.51,2.85A9.84,9.84,0,0,0,6,30H6a3,3,0,0,0,1.72.34l.1,0a7.21,7.21,0,0,1,2.06-.38c.76,0,1.38.56,2.12.21A9.84,9.84,0,0,1,15.42,29a1.4,1.4,0,0,1,1.51.86c.4.82.73.8,1.62.74s1-.16,1.5.37A1.44,1.44,0,0,1,20.28,31.3Z"/><path class="cls-2" d="M20.28,31.3c.11.18,2.42-.43,5.24-1.4l.57-.2a47.19,47.19,0,0,0-4.08-8L8.52,26.3c-2.3.79-3.71,2-3.51,2.85A9.84,9.84,0,0,0,6,30H6a3,3,0,0,0,1.72.34l.1,0a7.21,7.21,0,0,1,2.06-.38c.76,0,1.38.56,2.12.21A9.84,9.84,0,0,1,15.42,29a1.4,1.4,0,0,1,1.51.86c.4.82.73.8,1.62.74s1-.16,1.5.37A1.44,1.44,0,0,1,20.28,31.3Z"/><path class="cls-2" d="M20.28,31.3c.11.18,2.42-.43,5.24-1.4l.57-.2a47.19,47.19,0,0,0-4.08-8L8.52,26.3c-2.3.79-3.71,2-3.51,2.85A9.84,9.84,0,0,0,6,30H6a3,3,0,0,0,1.72.34l.1,0a7.21,7.21,0,0,1,2.06-.38c.76,0,1.38.56,2.12.21A9.84,9.84,0,0,1,15.42,29a1.4,1.4,0,0,1,1.51.86c.4.82.73.8,1.62.74s1-.16,1.5.37A1.44,1.44,0,0,1,20.28,31.3Z"/><path class="cls-1" d="M24.93,32c-2.82,1-5.25,2.39-5.05,3.12,0,0,0,.08,0,.11l0,.08,0,.12a2.92,2.92,0,0,0,.14.31l.09.15.08.11.07.1.08.09h0l.1.11A8.45,8.45,0,0,1,22,37.84c.25.43.15.89.37,1.3A4.21,4.21,0,0,1,23,40.72s0,.05,0,.08a.09.09,0,0,0,0,.05.11.11,0,0,0,0,0v0a.62.62,0,0,1,0,.16,1.29,1.29,0,0,1,.07.21l0,.08c.15.34,2.5-.17,5.29-1.13l.34-.11a47.32,47.32,0,0,0-2.13-8.73Z"/><path class="cls-2" d="M24.93,32c-2.82,1-5.25,2.39-5.05,3.12,0,0,0,.08,0,.11l0,.08,0,.12a2.92,2.92,0,0,0,.14.31l.09.15.08.11.07.1.08.09h0l.1.11A8.45,8.45,0,0,1,22,37.84c.25.43.15.89.37,1.3A4.21,4.21,0,0,1,23,40.72s0,.05,0,.08a.09.09,0,0,0,0,.05.11.11,0,0,0,0,0v0a.62.62,0,0,1,0,.16,1.29,1.29,0,0,1,.07.21l0,.08c.15.34,2.5-.17,5.29-1.13l.34-.11a47.32,47.32,0,0,0-2.13-8.73Z"/><path class="cls-2" d="M24.93,32c-2.82,1-5.25,2.39-5.05,3.12,0,0,0,.08,0,.11l0,.08,0,.12a2.92,2.92,0,0,0,.14.31l.09.15.08.11.07.1.08.09h0l.1.11A8.45,8.45,0,0,1,22,37.84c.25.43.15.89.37,1.3A4.21,4.21,0,0,1,23,40.72s0,.05,0,.08a.09.09,0,0,0,0,.05.11.11,0,0,0,0,0v0a.62.62,0,0,1,0,.16,1.29,1.29,0,0,1,.07.21l0,.08c.15.34,2.5-.17,5.29-1.13l.34-.11a47.32,47.32,0,0,0-2.13-8.73Z"/><path class="cls-1" d="M26.16,56.76c.13.18.24.36.35.54l.12.21,0,.07a2.4,2.4,0,0,0,.11.23c0,.1.08.19.11.29a.42.42,0,0,1,0,.1l0,.1v0a.65.65,0,0,1,0,.13.5.5,0,0,1,0,.12.29.29,0,0,1,0,.09,2.85,2.85,0,0,1,0,.29c0,.24-.29.21-.32.4s.25.6.29.73c.1.31.17.35.36.43a48.9,48.9,0,0,0,1.51-7C26.76,54.44,25.56,55.82,26.16,56.76Z"/><path class="cls-2" d="M26.16,56.76c.13.18.24.36.35.54l.12.21,0,.07a2.4,2.4,0,0,0,.11.23c0,.1.08.19.11.29a.42.42,0,0,1,0,.1l0,.1v0a.65.65,0,0,1,0,.13.5.5,0,0,1,0,.12.29.29,0,0,1,0,.09,2.85,2.85,0,0,1,0,.29c0,.24-.29.21-.32.4s.25.6.29.73c.1.31.17.35.36.43a48.9,48.9,0,0,0,1.51-7C26.76,54.44,25.56,55.82,26.16,56.76Z"/><path class="cls-2" d="M26.16,56.76c.13.18.24.36.35.54l.12.21,0,.07a2.4,2.4,0,0,0,.11.23c0,.1.08.19.11.29a.42.42,0,0,1,0,.1l0,.1v0a.65.65,0,0,1,0,.13.5.5,0,0,1,0,.12.29.29,0,0,1,0,.09,2.85,2.85,0,0,1,0,.29c0,.24-.29.21-.32.4s.25.6.29.73c.1.31.17.35.36.43a48.9,48.9,0,0,0,1.51-7C26.76,54.44,25.56,55.82,26.16,56.76Z"/><path class="cls-1" d="M29.07,42l-1.37.47c-2.81,1-5.3,2.19-5.48,2.78A4.46,4.46,0,0,0,22,46.28a4.34,4.34,0,0,0,.56,2.49c.42.65.78,1.32,1.24,1.95a1,1,0,0,1,.11.17h0v0A.37.37,0,0,1,24,51a1,1,0,0,1,.07.15l0,.13s0,.09.05.14a1.24,1.24,0,0,0,0,.16s0,.07,0,.1l0,.11c.13.62,2.24.42,4.87-.44A47.17,47.17,0,0,0,29.07,42Z"/><path class="cls-2" d="M29.07,42l-1.37.47c-2.81,1-5.3,2.19-5.48,2.78A4.46,4.46,0,0,0,22,46.28a4.34,4.34,0,0,0,.56,2.49c.42.65.78,1.32,1.24,1.95a1,1,0,0,1,.11.17h0v0A.37.37,0,0,1,24,51a1,1,0,0,1,.07.15l0,.13s0,.09.05.14a1.24,1.24,0,0,0,0,.16s0,.07,0,.1l0,.11c.13.62,2.24.42,4.87-.44A47.17,47.17,0,0,0,29.07,42Z"/><path class="cls-2" d="M29.07,42l-1.37.47c-2.81,1-5.3,2.19-5.48,2.78A4.46,4.46,0,0,0,22,46.28a4.34,4.34,0,0,0,.56,2.49c.42.65.78,1.32,1.24,1.95a1,1,0,0,1,.11.17h0v0A.37.37,0,0,1,24,51a1,1,0,0,1,.07.15l0,.13s0,.09.05.14a1.24,1.24,0,0,0,0,.16s0,.07,0,.1l0,.11c.13.62,2.24.42,4.87-.44A47.17,47.17,0,0,0,29.07,42Z"/><circle class="cls-3" cx="39.32" cy="11.21" r="11.21"/></g></g></svg>