<svg xmlns="http://www.w3.org/2000/svg" viewBox="0 0 159 159"><defs><style>.cls-1{fill:#1c779b;}.cls-2{fill:#fff;}</style></defs><g id="Layer_2" data-name="Layer 2"><g id="Capa_1" data-name="Capa 1"><circle class="cls-1" cx="79.5" cy="79.5" r="79.5"/><path class="cls-2" d="M56,64.05a9.3,9.3,0,1,0-9.3-9.3A9.31,9.31,0,0,0,56,64.05Zm0-16.37A7.07,7.07,0,1,1,49,54.75,7.08,7.08,0,0,1,56,47.68Z"/><path class="cls-2" d="M79.39,64.05a9.3,9.3,0,1,0-9.3-9.3A9.31,9.31,0,0,0,79.39,64.05Zm0-16.37a7.07,7.07,0,1,1-7.07,7.07A7.08,7.08,0,0,1,79.39,47.68Z"/><path class="cls-2" d="M118.22,82.52c0-3.35,0-6.82,0-10.22a8.09,8.09,0,0,0-4-6.32,5.91,5.91,0,0,0-2.91-.78H47.69a5.91,5.91,0,0,0-2.91.78,8.09,8.09,0,0,0-4,6.32c0,3.4,0,6.87,0,10.22,0,1.9,0,3.81,0,5.71v1.56a4.21,4.21,0,0,0,1,2.86,3.17,3.17,0,0,0,2.36.95,4,4,0,0,0,1.73-.38V112a5.63,5.63,0,0,0,1.42,3.74,4.68,4.68,0,0,0,6.35,0A5.53,5.53,0,0,0,55,112V95.15a.61.61,0,0,1,.59-.69c.17,0,.56.05.59.69V112a5.52,5.52,0,0,0,1.35,3.76,4.7,4.7,0,0,0,6.36,0A5.59,5.59,0,0,0,65.32,112V75a1.12,1.12,0,1,0-2.23,0v37.09a3.49,3.49,0,0,1-.77,2.15,2.13,2.13,0,0,1-1.59.57,2.07,2.07,0,0,1-1.57-.56,3.4,3.4,0,0,1-.73-2.18V95.14a2.83,2.83,0,0,0-2.8-2.91,0,0,0,0,0,0,0,2.82,2.82,0,0,0-2.8,2.92v16.92a3.47,3.47,0,0,1-.73,2.14,2.1,2.1,0,0,1-1.57.56,2.13,2.13,0,0,1-1.59-.57,3.5,3.5,0,0,1-.78-2.17V90.31a.58.58,0,0,0,0-.19V75a1.12,1.12,0,1,0-2.23,0v15a1.82,1.82,0,0,1-1.75,1.45.91.91,0,0,1-.74-.25A2,2,0,0,1,43,89.86V88.23c0-1.91,0-3.82,0-5.73,0-3.34,0-6.79,0-10.18a5.82,5.82,0,0,1,2.85-4.39,3.7,3.7,0,0,1,1.82-.5h63.62a3.7,3.7,0,0,1,1.82.5,5.82,5.82,0,0,1,2.85,4.4c0,3.38,0,6.83,0,10.17,0,1.91,0,3.82,0,5.73v1.62a2,2,0,0,1-.39,1.26.91.91,0,0,1-.74.25A1.79,1.79,0,0,1,113.11,90V75a1.12,1.12,0,1,0-2.23,0V112a3.49,3.49,0,0,1-.78,2.16,2.13,2.13,0,0,1-1.59.57,2.06,2.06,0,0,1-1.56-.56,3.36,3.36,0,0,1-.74-2.18V95.15a2.82,2.82,0,0,0-2.8-2.92,0,0,0,0,0,0,0,2.83,2.83,0,0,0-2.8,2.92v16.92a3.43,3.43,0,0,1-.73,2.13,2.07,2.07,0,0,1-1.57.57,2.11,2.11,0,0,1-1.58-.57,3.42,3.42,0,0,1-.78-2.17V75a1.12,1.12,0,1,0-2.23,0V112a5.6,5.6,0,0,0,1.41,3.75,4.7,4.7,0,0,0,6.36,0A5.5,5.5,0,0,0,102.8,112V95.16c0-.26.08-.68.59-.7.18,0,.57.05.59.69V112a5.55,5.55,0,0,0,1.36,3.76,4.68,4.68,0,0,0,6.35,0,5.62,5.62,0,0,0,1.42-3.73V93.22a4,4,0,0,0,1.73.38,3.16,3.16,0,0,0,2.36-.95,4.21,4.21,0,0,0,1-2.86V88.23C118.2,86.33,118.21,84.42,118.22,82.52Z"/><path class="cls-2" d="M103.39,64.05a9.3,9.3,0,1,0-9.3-9.3A9.31,9.31,0,0,0,103.39,64.05Zm0-16.37a7.07,7.07,0,1,1-7.06,7.07A7.08,7.08,0,0,1,103.39,47.68Z"/><path class="cls-2" d="M90,75a1.12,1.12,0,1,0-2.23,0v37.13a3.19,3.19,0,0,1-.76,2,2.62,2.62,0,0,1-2,.69,2.56,2.56,0,0,1-1.93-.67,3.07,3.07,0,0,1-.73-2V95.36a2.9,2.9,0,0,0-3-2.91h0a2.91,2.91,0,0,0-3,2.91v16.75a3.14,3.14,0,0,1-.73,2,2.56,2.56,0,0,1-1.93.67,2.63,2.63,0,0,1-2-.67,3.22,3.22,0,0,1-.77-2V75a1.12,1.12,0,1,0-2.23,0v37.09a5.35,5.35,0,0,0,1.4,3.6,5.34,5.34,0,0,0,7.11,0,5.27,5.27,0,0,0,1.34-3.58V95.39a.77.77,0,0,1,1.53,0v16.7a5.29,5.29,0,0,0,1.35,3.59A4.71,4.71,0,0,0,85,117a4.77,4.77,0,0,0,3.56-1.35,5.28,5.28,0,0,0,1.4-3.58Z"/></g></g></svg>