<svg xmlns="http://www.w3.org/2000/svg" viewBox="0 0 159 159"><defs><style>.cls-1{fill:#ffa84b;}.cls-2{fill:#fff;}</style></defs><g id="Layer_2" data-name="Layer 2"><g id="Capa_1" data-name="Capa 1"><circle class="cls-1" cx="79.5" cy="79.5" r="79.5"/><path class="cls-2" d="M61.11,61.34a10.74,10.74,0,0,0-4.37-.94H31.66a10.78,10.78,0,0,0-4.38.94C24.19,62.7,21,65.92,21,69.42c-.07,4.34,0,8.76,0,13,0,2.31,0,4.62,0,6.93v1.94a4.68,4.68,0,0,0,5.07,4.9,6.83,6.83,0,0,0,3-.64v23.57a6.62,6.62,0,0,0,1.78,4.46,7.08,7.08,0,0,0,5.26,1.93,6.94,6.94,0,0,0,5.23-1.94A6.51,6.51,0,0,0,43,119.17V98.1c0-.77.91-.78,1.14-.79s1.15,0,1.19.74v21.13a6.49,6.49,0,0,0,1.72,4.43,6.93,6.93,0,0,0,5.22,1.94,7.08,7.08,0,0,0,5.26-1.93,6.53,6.53,0,0,0,1.79-4.42V95.59a6.82,6.82,0,0,0,3,.64,5,5,0,0,0,3.81-1.46,4.92,4.92,0,0,0,1.26-3.44V89.39c0-2.39,0-4.78,0-7.17,0-4.19.06-8.53,0-12.8C67.39,65.92,64.21,62.71,61.11,61.34ZM64.39,82.2c0,2.4,0,4.79,0,7.19v2.06a1.87,1.87,0,0,1-.43,1.22,2.07,2.07,0,0,1-1.58.5,3,3,0,0,1-2.91-1.5V72.76a1.53,1.53,0,0,0-3.06,0V91.28a1.4,1.4,0,0,0-.08.47v27.48a3.51,3.51,0,0,1-.92,2.24,4.12,4.12,0,0,1-3.07,1,4.09,4.09,0,0,1-3-1,3.51,3.51,0,0,1-.88-2.25V98.05c0-1.5-1.12-3.74-4.25-3.8a3.94,3.94,0,0,0-4.2,3.8v21.21a3.51,3.51,0,0,1-.86,2.23,4.07,4.07,0,0,1-3,1,4.18,4.18,0,0,1-3.05-1,3.6,3.6,0,0,1-.93-2.3V91.75h0v-19a1.53,1.53,0,0,0-3.06,0V91.49a3,3,0,0,1-3,1.68,2.13,2.13,0,0,1-1.56-.48A1.92,1.92,0,0,1,24,91.44v-2c0-2.32,0-4.64,0-7,0-4.26-.06-8.66,0-13,0-2.09,2.36-4.39,4.5-5.33a7.69,7.69,0,0,1,3.14-.68H56.74a7.64,7.64,0,0,1,3.13.68c2.14.94,4.48,3.25,4.51,5.33C64.45,73.7,64.42,78,64.39,82.2Z"/><path class="cls-2" d="M43.83,58.94A12.75,12.75,0,1,0,31.08,46.19,12.76,12.76,0,0,0,43.83,58.94Zm0-22.43a9.69,9.69,0,1,1-9.69,9.68A9.7,9.7,0,0,1,43.83,36.51Z"/><path class="cls-2" d="M138.05,82.22c0-4.2.06-8.53,0-12.8,0-3.5-3.23-6.71-6.34-8.08a10.69,10.69,0,0,0-4.36-.94H102.26a10.78,10.78,0,0,0-4.38.94c-3.1,1.36-6.26,4.58-6.32,8.08-.07,4.35,0,8.77,0,13,0,2.3,0,4.61,0,6.92v1.94a4.68,4.68,0,0,0,5.07,4.9,6.83,6.83,0,0,0,3-.64v23.57a6.62,6.62,0,0,0,1.78,4.46,7.08,7.08,0,0,0,5.26,1.93,6.94,6.94,0,0,0,5.23-1.94,6.51,6.51,0,0,0,1.71-4.44V98.1c.06-.77.92-.78,1.15-.79s1.14,0,1.19.74v21.13a6.49,6.49,0,0,0,1.72,4.43,6.93,6.93,0,0,0,5.22,1.94,7.08,7.08,0,0,0,5.26-1.93A6.59,6.59,0,0,0,130,119.2V95.59a6.82,6.82,0,0,0,3,.64,4.68,4.68,0,0,0,5.07-4.9V89.39C138,87,138,84.61,138.05,82.22Zm-3.06,0c0,2.39,0,4.79,0,7.19v2.06a1.93,1.93,0,0,1-.43,1.22,2.08,2.08,0,0,1-1.58.5A3,3,0,0,1,130,91.66V72.76a1.53,1.53,0,1,0-3.06,0V91.28a1.4,1.4,0,0,0-.08.47v27.48a3.58,3.58,0,0,1-.92,2.24,4.12,4.12,0,0,1-3.07,1,4.07,4.07,0,0,1-3-1,3.51,3.51,0,0,1-.88-2.25V98.05c0-1.5-1.12-3.74-4.25-3.8a3.94,3.94,0,0,0-4.2,3.8v21.21a3.51,3.51,0,0,1-.86,2.23,4.07,4.07,0,0,1-3,1,4.16,4.16,0,0,1-3-1,3.6,3.6,0,0,1-.93-2.3V91.76h0v-19a1.53,1.53,0,1,0-3.06,0V91.49a2.93,2.93,0,0,1-3,1.68,2.13,2.13,0,0,1-1.56-.48,1.94,1.94,0,0,1-.46-1.25s0,0,0-.08v-2c0-2.32,0-4.63,0-6.94,0-4.26-.06-8.67,0-13,0-2.09,2.36-4.39,4.5-5.33a7.65,7.65,0,0,1,3.14-.68h25.08a7.64,7.64,0,0,1,3.13.68c2.14.94,4.48,3.25,4.51,5.33C135.05,73.7,135,78,135,82.2Z"/><path class="cls-2" d="M114.43,58.94a12.75,12.75,0,1,0-12.75-12.75A12.76,12.76,0,0,0,114.43,58.94Zm0-22.43a9.69,9.69,0,1,1-9.69,9.68A9.7,9.7,0,0,1,114.43,36.51Z"/><path class="cls-2" d="M85.94,72.21H72.36a1.53,1.53,0,0,0,0,3.06H85.94a1.53,1.53,0,0,0,0-3.06Z"/><path class="cls-2" d="M85.94,80.72H72.36a1.53,1.53,0,0,0,0,3.06H85.94a1.53,1.53,0,0,0,0-3.06Z"/></g></g></svg>