<svg xmlns="http://www.w3.org/2000/svg" viewBox="0 0 75.42 75.42"><defs><style>.cls-1{fill:none;stroke:#fff;stroke-linecap:round;stroke-linejoin:round;stroke-width:2px;}</style></defs><g id="Layer_2" data-name="Layer 2"><g id="Layer_1-2" data-name="Layer 1"><polygon class="cls-1" points="66.54 58.52 15.28 58.52 23.16 23.03 74.42 23.03 66.54 58.52"/><line class="cls-1" x1="27.11" y1="40.11" x2="70.48" y2="40.11"/><polyline class="cls-1" points="38.94 58.52 48.73 58.52 48.73 74.42 38.94 74.42"/><line class="cls-1" x1="24.25" y1="74.42" x2="63.41" y2="74.42"/><line class="cls-1" x1="38.94" y1="74.42" x2="38.94" y2="59.74"/><line class="cls-1" x1="38.89" y1="29.15" x2="33.72" y2="52.4"/><line class="cls-1" x1="50.81" y1="52.4" x2="55.98" y2="29.15"/><polyline class="cls-1" points="40.25 23.03 23.16 23.03 15.28 58.52 32.36 58.52"/><line class="cls-1" x1="33.72" y1="52.4" x2="38.89" y2="29.15"/><line class="cls-1" x1="55.98" y1="29.15" x2="50.81" y2="52.4"/><polyline class="cls-1" points="49.45 58.52 66.54 58.52 74.42 23.03 57.34 23.03"/><path class="cls-1" d="M35.26,23A12.24,12.24,0,1,0,15.5,32.66"/><line class="cls-1" x1="23.03" y1="1" x2="23.03" y2="5.89"/><line class="cls-1" x1="7.45" y1="7.45" x2="10.91" y2="10.91"/><line class="cls-1" x1="1" y1="23.03" x2="5.89" y2="23.03"/><line class="cls-1" x1="7.45" y1="38.6" x2="10.91" y2="35.14"/><line class="cls-1" x1="45.05" y1="23.03" x2="40.16" y2="23.03"/><line class="cls-1" x1="38.6" y1="7.45" x2="35.14" y2="10.91"/></g></g></svg>