<svg xmlns="http://www.w3.org/2000/svg" viewBox="0 0 28.96 28.96"><defs><style>.cls-1{fill:#1c779b;}.cls-2{fill:#fff;}</style></defs><g id="Layer_2" data-name="Layer 2"><g id="Layer_1-2" data-name="Layer 1"><path class="cls-1" d="M29,14.48A14.48,14.48,0,1,1,14.48,0,14.48,14.48,0,0,1,29,14.48Z"/><path class="cls-2" d="M22.48,9.52a6.3,6.3,0,0,1-1.59.46c.25-.05.63-.51.78-.7a3,3,0,0,0,.53-1,.05.05,0,0,0,0-.08.09.09,0,0,0-.09,0A8,8,0,0,1,20.22,9a.12.12,0,0,1-.13,0,1.36,1.36,0,0,0-.17-.17A3.06,3.06,0,0,0,19,8.2,3.11,3.11,0,0,0,17.6,8a3.33,3.33,0,0,0-1.34.38,3.44,3.44,0,0,0-1.72,2.16,3.47,3.47,0,0,0,0,1.36c0,.08,0,.09-.06.08A10.13,10.13,0,0,1,7.94,8.64c-.08-.09-.12-.09-.18,0a3.29,3.29,0,0,0,.56,3.9l.4.36a3.31,3.31,0,0,1-1.26-.36c-.07,0-.11,0-.12.07s0,.24,0,.37a3.34,3.34,0,0,0,2.06,2.66,1.57,1.57,0,0,0,.42.13,4.05,4.05,0,0,1-1.23,0c-.09,0-.13,0-.09.11a3.46,3.46,0,0,0,2.58,2.17c.12,0,.24,0,.36.05s0,0,0,0a4.08,4.08,0,0,1-1.77.93A6.29,6.29,0,0,1,7,19.44c-.14,0-.17,0-.21,0s0,.06,0,.09c.19.12.37.23.56.33a8.26,8.26,0,0,0,1.8.72,9.53,9.53,0,0,0,9.27-2.17A9.74,9.74,0,0,0,21,11.31c0-.1.12-.16.19-.21a6.31,6.31,0,0,0,1.27-1.31.44.44,0,0,0,.08-.26h0S22.55,9.49,22.48,9.52Z"/></g></g></svg>