<svg xmlns="http://www.w3.org/2000/svg" viewBox="0 0 28.96 28.97"><defs><style>.cls-1{fill:#1c779b;}.cls-2{fill:#fff;}</style></defs><g id="Layer_2" data-name="Layer 2"><g id="Layer_1-2" data-name="Layer 1"><path class="cls-1" d="M29,14.48A14.48,14.48,0,1,1,14.48,0,14.48,14.48,0,0,1,29,14.48Z"/><path class="cls-2" d="M22.24,12.41a3.47,3.47,0,0,0-3.48-3.47H9.87a3.47,3.47,0,0,0-3.48,3.47v4.14A3.48,3.48,0,0,0,9.87,20h8.89a3.48,3.48,0,0,0,3.48-3.48ZM17,14.79l-4,2c-.16.08-.69,0-.69-.21v-4c0-.18.54-.29.69-.2l3.82,2.07C17,14.47,17.17,14.7,17,14.79Z"/></g></g></svg>